<svg width="20" height="20" viewBox="0 0 20 20" fill="none" xmlns="http://www.w3.org/2000/svg">
<path fill-rule="evenodd" clip-rule="evenodd" d="M10 0C15.5228 0 20 4.47715 20 10C20 15.5228 15.5228 20 10 20C4.47715 20 0 15.5228 0 10C0 4.47715 4.47715 0 10 0ZM10 11.75C6.92176 11.75 4.36328 13.9754 3.84559 16.9051C5.48091 18.3639 7.63698 19.25 10 19.25C12.363 19.25 14.5191 18.3639 16.1541 16.9059L16.1705 17.0002C15.6919 14.0237 13.1115 11.75 10 11.75ZM10 0.75C4.89137 0.75 0.75 4.89137 0.75 10C0.75 12.4263 1.68418 14.6344 3.21248 16.2843C3.86413 13.696 5.95725 11.6812 8.58821 11.1424C6.86498 10.5553 5.625 8.92247 5.625 7C5.625 4.58375 7.58375 2.625 10 2.625C12.4162 2.625 14.375 4.58375 14.375 7C14.375 8.92247 13.135 10.5553 11.4112 11.1424C14.0427 11.6812 16.1359 13.696 16.7881 16.2838C18.3158 14.6344 19.25 12.4263 19.25 10C19.25 4.89137 15.1086 0.75 10 0.75ZM10 3.375C7.99797 3.375 6.375 4.99797 6.375 7C6.375 9.00203 7.99797 10.625 10 10.625C12.002 10.625 13.625 9.00203 13.625 7C13.625 4.99797 12.002 3.375 10 3.375Z" fill="white"/>
</svg>
