<svg width="76" height="27" viewBox="0 0 76 27" fill="none" xmlns="http://www.w3.org/2000/svg">
<path d="M4.97468 9.144C2.63468 9.144 0.774684 7.464 0.774684 5.004C0.774684 2.544 2.63468 0.864 4.97468 0.864C6.79868 0.864 7.81868 1.824 8.38268 2.82L6.91868 3.54C6.58268 2.892 5.86268 2.376 4.97468 2.376C3.58268 2.376 2.52668 3.492 2.52668 5.004C2.52668 6.516 3.58268 7.632 4.97468 7.632C5.86268 7.632 6.58268 7.128 6.91868 6.468L8.38268 7.176C7.80668 8.172 6.79868 9.144 4.97468 9.144ZM9.70382 9V0.995999H11.2278V9H9.70382ZM13.8378 2.352C13.3458 2.352 12.9258 1.944 12.9258 1.44C12.9258 0.935999 13.3458 0.528 13.8378 0.528C14.3418 0.528 14.7498 0.935999 14.7498 1.44C14.7498 1.944 14.3418 2.352 13.8378 2.352ZM13.0818 9V3.204H14.6058V9H13.0818ZM16.0878 6.096C16.0878 4.32 17.3718 3.06 19.1599 3.06C20.3479 3.06 21.0679 3.576 21.4519 4.116L20.4559 5.04C20.1799 4.644 19.7599 4.416 19.2318 4.416C18.3078 4.416 17.6598 5.088 17.6598 6.096C17.6598 7.104 18.3078 7.788 19.2318 7.788C19.7599 7.788 20.1799 7.548 20.4559 7.164L21.4519 8.088C21.0679 8.628 20.3479 9.144 19.1599 9.144C17.3718 9.144 16.0878 7.884 16.0878 6.096ZM26.547 9L25.011 6.768L24.315 7.512V9H22.791V0.995999H24.315V5.784L26.511 3.204H28.383L26.091 5.832L28.455 9H26.547ZM34.8529 9V2.496H32.5129V0.995999H38.8969V2.496H36.5689V9H34.8529ZM41.8122 9.144C39.9042 9.144 38.7522 7.752 38.7522 6.096C38.7522 4.452 39.9042 3.06 41.8122 3.06C43.7322 3.06 44.8842 4.452 44.8842 6.096C44.8842 7.752 43.7322 9.144 41.8122 9.144ZM41.8122 7.788C42.7602 7.788 43.3002 7.008 43.3002 6.096C43.3002 5.196 42.7602 4.416 41.8122 4.416C40.8642 4.416 40.3362 5.196 40.3362 6.096C40.3362 7.008 40.8642 7.788 41.8122 7.788ZM49.8069 9V0.995999H51.5109V7.5H54.8949V9H49.8069ZM58.9541 9.144C57.0461 9.144 55.8941 7.752 55.8941 6.096C55.8941 4.452 57.0461 3.06 58.9541 3.06C60.8741 3.06 62.0261 4.452 62.0261 6.096C62.0261 7.752 60.8741 9.144 58.9541 9.144ZM58.9541 7.788C59.9021 7.788 60.4421 7.008 60.4421 6.096C60.4421 5.196 59.9021 4.416 58.9541 4.416C58.0061 4.416 57.4781 5.196 57.4781 6.096C57.4781 7.008 58.0061 7.788 58.9541 7.788ZM66.9796 9V8.4C66.5836 8.868 65.8996 9.144 65.1436 9.144C64.2196 9.144 63.1276 8.52 63.1276 7.224C63.1276 5.868 64.2196 5.376 65.1436 5.376C65.9116 5.376 66.5956 5.616 66.9796 6.084V5.28C66.9796 4.692 66.4756 4.308 65.7076 4.308C65.0836 4.308 64.5076 4.536 64.0156 4.992L63.4396 3.972C64.1476 3.348 65.0596 3.06 65.9716 3.06C67.2916 3.06 68.5036 3.588 68.5036 5.256V9H66.9796ZM66.9796 7.608V6.888C66.7276 6.552 66.2476 6.384 65.7556 6.384C65.1556 6.384 64.6636 6.708 64.6636 7.26C64.6636 7.8 65.1556 8.112 65.7556 8.112C66.2476 8.112 66.7276 7.944 66.9796 7.608ZM74.3421 9V8.268C73.8861 8.832 73.2501 9.144 72.5541 9.144C71.0901 9.144 69.9861 8.04 69.9861 6.108C69.9861 4.212 71.0781 3.06 72.5541 3.06C73.2381 3.06 73.8861 3.36 74.3421 3.948V0.995999H75.8781V9H74.3421ZM74.3421 7.128V5.076C74.0781 4.692 73.5381 4.416 73.0221 4.416C72.1581 4.416 71.5581 5.1 71.5581 6.108C71.5581 7.104 72.1581 7.788 73.0221 7.788C73.5381 7.788 74.0781 7.512 74.3421 7.128ZM6.16715 24.144C3.82715 24.144 1.96715 22.464 1.96715 20.004C1.96715 17.544 3.82715 15.864 6.16715 15.864C7.99115 15.864 9.01115 16.824 9.57515 17.82L8.11115 18.54C7.77515 17.892 7.05515 17.376 6.16715 17.376C4.77515 17.376 3.71915 18.492 3.71915 20.004C3.71915 21.516 4.77515 22.632 6.16715 22.632C7.05515 22.632 7.77515 22.128 8.11115 21.468L9.57515 22.176C8.99915 23.172 7.99115 24.144 6.16715 24.144ZM13.5843 24.144C11.6763 24.144 10.5243 22.752 10.5243 21.096C10.5243 19.452 11.6763 18.06 13.5843 18.06C15.5043 18.06 16.6563 19.452 16.6563 21.096C16.6563 22.752 15.5043 24.144 13.5843 24.144ZM13.5843 22.788C14.5323 22.788 15.0723 22.008 15.0723 21.096C15.0723 20.196 14.5323 19.416 13.5843 19.416C12.6363 19.416 12.1083 20.196 12.1083 21.096C12.1083 22.008 12.6363 22.788 13.5843 22.788ZM25.3178 24V20.34C25.3178 19.8 25.0778 19.416 24.4538 19.416C23.9138 19.416 23.4698 19.776 23.2538 20.088V24H21.7178V20.34C21.7178 19.8 21.4778 19.416 20.8538 19.416C20.3258 19.416 19.8818 19.776 19.6538 20.1V24H18.1298V18.204H19.6538V18.96C19.8938 18.612 20.6618 18.06 21.5498 18.06C22.4018 18.06 22.9418 18.456 23.1578 19.116C23.4938 18.588 24.2618 18.06 25.1498 18.06C26.2178 18.06 26.8538 18.624 26.8538 19.812V24H25.3178ZM30.2154 26.208H28.6914V18.204H30.2154V18.936C30.6594 18.372 31.2954 18.06 32.0034 18.06C33.4914 18.06 34.5714 19.164 34.5714 21.096C34.5714 23.028 33.4914 24.144 32.0034 24.144C31.3194 24.144 30.6834 23.856 30.2154 23.256V26.208ZM32.9874 21.096C32.9874 20.1 32.3994 19.416 31.5234 19.416C31.0314 19.416 30.4674 19.704 30.2154 20.076V22.128C30.4674 22.488 31.0314 22.788 31.5234 22.788C32.3994 22.788 32.9874 22.104 32.9874 21.096ZM39.5338 24V23.4C39.1378 23.868 38.4538 24.144 37.6978 24.144C36.7738 24.144 35.6818 23.52 35.6818 22.224C35.6818 20.868 36.7738 20.376 37.6978 20.376C38.4658 20.376 39.1498 20.616 39.5338 21.084V20.28C39.5338 19.692 39.0298 19.308 38.2618 19.308C37.6378 19.308 37.0618 19.536 36.5698 19.992L35.9938 18.972C36.7018 18.348 37.6138 18.06 38.5258 18.06C39.8458 18.06 41.0578 18.588 41.0578 20.256V24H39.5338ZM39.5338 22.608V21.888C39.2818 21.552 38.8018 21.384 38.3098 21.384C37.7098 21.384 37.2178 21.708 37.2178 22.26C37.2178 22.8 37.7098 23.112 38.3098 23.112C38.8018 23.112 39.2818 22.944 39.5338 22.608ZM42.5163 21.744V20.448H45.3963V21.744H42.5163ZM51.4128 24L49.8408 21.132H48.5928V24H46.8888V15.996H50.6328C52.3008 15.996 53.3208 17.088 53.3208 18.576C53.3208 19.992 52.4328 20.748 51.5688 20.952L53.3688 24H51.4128ZM51.5808 18.564C51.5808 17.892 51.0648 17.46 50.3808 17.46H48.5928V19.668H50.3808C51.0648 19.668 51.5808 19.236 51.5808 18.564ZM58.1522 24V23.4C57.7562 23.868 57.0722 24.144 56.3162 24.144C55.3922 24.144 54.3002 23.52 54.3002 22.224C54.3002 20.868 55.3922 20.376 56.3162 20.376C57.0842 20.376 57.7682 20.616 58.1522 21.084V20.28C58.1522 19.692 57.6482 19.308 56.8802 19.308C56.2562 19.308 55.6802 19.536 55.1882 19.992L54.6122 18.972C55.3202 18.348 56.2322 18.06 57.1442 18.06C58.4642 18.06 59.6762 18.588 59.6762 20.256V24H58.1522ZM58.1522 22.608V21.888C57.9002 21.552 57.4202 21.384 56.9282 21.384C56.3282 21.384 55.8362 21.708 55.8362 22.26C55.8362 22.8 56.3282 23.112 56.9282 23.112C57.4202 23.112 57.9002 22.944 58.1522 22.608ZM63.4747 24.144C62.4067 24.144 61.8307 23.592 61.8307 22.56V19.536H60.8707V18.204H61.8307V16.62H63.3667V18.204H64.5427V19.536H63.3667V22.152C63.3667 22.512 63.5587 22.788 63.8947 22.788C64.1227 22.788 64.3387 22.704 64.4227 22.62L64.7467 23.772C64.5187 23.976 64.1107 24.144 63.4747 24.144ZM66.6842 17.352C66.1922 17.352 65.7722 16.944 65.7722 16.44C65.7722 15.936 66.1922 15.528 66.6842 15.528C67.1882 15.528 67.5962 15.936 67.5962 16.44C67.5962 16.944 67.1882 17.352 66.6842 17.352ZM65.9282 24V18.204H67.4522V24H65.9282ZM71.9942 24.144C70.0862 24.144 68.9342 22.752 68.9342 21.096C68.9342 19.452 70.0862 18.06 71.9942 18.06C73.9142 18.06 75.0662 19.452 75.0662 21.096C75.0662 22.752 73.9142 24.144 71.9942 24.144ZM71.9942 22.788C72.9422 22.788 73.4822 22.008 73.4822 21.096C73.4822 20.196 72.9422 19.416 71.9942 19.416C71.0462 19.416 70.5182 20.196 70.5182 21.096C70.5182 22.008 71.0462 22.788 71.9942 22.788Z" fill="#007BC7"/>
</svg>
