<svg xmlns="http://www.w3.org/2000/svg" xmlns:xlink="http://www.w3.org/1999/xlink" width="22" height="20" viewBox="0 0 22 20">
    <defs>
        <path id="a" d="M375.762 1.002c-.115.016-.2.128-.196.258v11.515c-.88.125-1.566.96-1.566 1.976 0 1.015.686 1.858 1.566 1.983v4.013a.257.257 0 0 0 .111.219c.07.045.156.045.226 0a.257.257 0 0 0 .11-.22v-4.012c.881-.125 1.567-.968 1.567-1.983 0-1.016-.686-1.851-1.566-1.976V1.26a.265.265 0 0 0-.072-.194.21.21 0 0 0-.18-.064zm7.16 0c-.114.016-.2.128-.195.258v4.02c-.88.125-1.566.96-1.566 1.976 0 1.015.686 1.858 1.566 1.983v11.508a.257.257 0 0 0 .11.219c.07.045.157.045.227 0a.257.257 0 0 0 .11-.22V9.24c.88-.125 1.567-.968 1.567-1.983 0-1.016-.686-1.851-1.566-1.976V1.26a.265.265 0 0 0-.073-.194.21.21 0 0 0-.18-.064zm7.161 0c-.115.016-.2.128-.195.258v11.515c-.88.125-1.567.96-1.567 1.976 0 1.015.686 1.858 1.567 1.983v4.013a.257.257 0 0 0 .11.219c.07.045.156.045.226 0a.257.257 0 0 0 .111-.22v-4.012c.88-.125 1.567-.968 1.567-1.983 0-1.016-.687-1.851-1.567-1.976V1.26a.265.265 0 0 0-.072-.194.21.21 0 0 0-.18-.064zm-7.132 4.755c.744 0 1.342.668 1.342 1.499 0 .83-.598 1.499-1.342 1.499-.744 0-1.343-.669-1.343-1.5 0-.83.599-1.498 1.343-1.498zm-7.16 7.495c.743 0 1.342.668 1.342 1.499 0 .83-.599 1.499-1.343 1.499s-1.342-.669-1.342-1.5c0-.83.598-1.498 1.342-1.498zm14.32 0c.745 0 1.343.668 1.343 1.499 0 .83-.598 1.499-1.343 1.499-.744 0-1.342-.669-1.342-1.5 0-.83.598-1.498 1.342-1.498z"/>
    </defs>
    <g fill="none" fill-rule="nonzero" stroke="#000" stroke-width=".15" transform="rotate(90 197.45 -175.5)">
        <use fill="#000" xlink:href="#a"/>
        <use xlink:href="#a"/>
        <use xlink:href="#a"/>
        <use xlink:href="#a"/>
        <use xlink:href="#a"/>
    </g>
</svg>
