<svg width="168" height="33" viewBox="0 0 168 33" fill="none" xmlns="http://www.w3.org/2000/svg">
<path fill-rule="evenodd" clip-rule="evenodd" d="M17.6798 29.8994V29.4869H15.4861L3.44136 12.5538L11.4413 3.51312H14.5275V3.10063H11.249L0 15.8153L10.0209 29.8994H17.6798ZM23.3695 3.51312V3.10063H36.3575V11.7177H36.0487C34.8964 6.67562 32.168 3.51312 26.6734 3.51312H23.3695ZM23.3695 16.5V16.082C27.8256 16.082 29.4761 14.278 29.8228 10.5889H30.1316V22.1059H29.8228C29.6712 20.262 29.1337 16.5 23.3695 16.5ZM20.2061 33H19.785V0H20.2061V33ZM164.199 12.2163C164.199 12.3621 164.061 12.4391 163.883 12.4391H163.512V12.0005H163.9C164.085 12.0005 164.199 12.0829 164.199 12.2094V12.2163ZM163.905 11.8698H163.373V13.0345H163.512V12.5656H163.851H163.856L164.234 13.0345H164.415L164.019 12.5436C164.21 12.5092 164.343 12.3978 164.343 12.2094V12.2039C164.343 12.1146 164.305 12.0376 164.253 11.9867C164.178 11.9138 164.051 11.8698 163.905 11.8698ZM164.903 12.4776V12.4831C164.903 13.0661 164.439 13.5459 163.821 13.5459C163.208 13.5459 162.746 13.0716 162.746 12.49V12.4831C162.746 11.9015 163.211 11.4216 163.827 11.4216C164.44 11.4216 164.903 11.8946 164.903 12.4776ZM162.648 12.4831V12.49C162.648 13.117 163.161 13.6353 163.821 13.6353C164.481 13.6353 165 13.1101 165 12.4831V12.4776C165 11.8506 164.488 11.3322 163.827 11.3322C163.168 11.3322 162.648 11.8575 162.648 12.4831Z" fill="white"/>
<path fill-rule="evenodd" clip-rule="evenodd" d="M55.3449 2H56.7885L55.9858 9.76205L64.1354 2H66L59.9297 7.68206L64.8939 15H63.083L58.8196 8.70425L55.8062 11.5088L55.4446 15H54L55.3449 2Z" fill="white"/>
<path fill-rule="evenodd" clip-rule="evenodd" d="M64.816 8.50943L64.8206 8.47314C65.179 5.03426 68.0584 2.02197 71.8265 2.02197C75.5952 2.02197 77.8133 4.99832 77.4548 8.43792L77.4513 8.47314C77.0918 11.9131 74.2124 14.9254 70.4437 14.9254C66.676 14.9254 64.4579 11.9494 64.816 8.50943ZM75.996 8.50943L76.0006 8.47314C76.2958 5.63981 74.4849 3.32186 71.6543 3.32186C68.824 3.32186 66.5689 5.60353 66.2741 8.43792L66.2702 8.47314C65.9743 11.3075 67.7855 13.6248 70.6158 13.6248C73.4468 13.6248 75.7012 11.3438 75.996 8.50943Z" fill="white"/>
<path fill-rule="evenodd" clip-rule="evenodd" d="M80.5196 2.23535H85.8447C87.3661 2.23535 88.5382 2.69894 89.2349 3.4824C89.7729 4.08972 90.0362 4.96229 89.9348 5.94302L89.9302 5.97931C89.7153 8.04715 88.1727 9.25791 86.1901 9.61406L89.4611 14.7125H87.7457L84.6606 9.86347H81.1223L80.6161 14.7125H79.2178L80.5196 2.23535ZM85.0568 8.59845C86.9157 8.59845 88.342 7.6364 88.5096 6.03109L88.5131 5.99692C88.6732 4.46242 87.6022 3.53629 85.6029 3.53629H81.7819L81.2545 8.59845H85.0568Z" fill="white"/>
<path fill-rule="evenodd" clip-rule="evenodd" d="M92.7751 2.23535H94.084L100.843 12.235L101.886 2.23535H103.248L101.946 14.7125H100.833L93.9027 4.48109L92.8356 14.7125H91.4736L92.7751 2.23535Z" fill="white"/>
<path fill-rule="evenodd" clip-rule="evenodd" d="M110.99 2.23535H119.889L119.753 3.53629H112.252L111.787 7.99219H118.491L118.358 9.27552H111.653L111.087 14.7125H109.688L110.99 2.23535Z" fill="white"/>
<path fill-rule="evenodd" clip-rule="evenodd" d="M122.06 2.23535H131.012L130.879 3.51868H123.325L122.88 7.77907H129.638L129.504 9.06134H122.746L122.29 13.4285H129.933L129.799 14.7125H120.759L122.06 2.23535Z" fill="white"/>
<path fill-rule="evenodd" clip-rule="evenodd" d="M133.378 2.23535H138.703C140.224 2.23535 141.397 2.69894 142.093 3.4824C142.631 4.08972 142.895 4.96229 142.793 5.94302L142.789 5.97931C142.573 8.04715 141.031 9.25791 139.048 9.61406L142.32 14.7125H140.604L137.519 9.86347H133.981L133.475 14.7125H132.076L133.378 2.23535ZM137.915 8.59845C139.774 8.59845 141.2 7.6364 141.368 6.03109L141.371 5.99692C141.531 4.46242 140.461 3.53629 138.461 3.53629H134.64L134.113 8.59845H137.915Z" fill="white"/>
<path fill-rule="evenodd" clip-rule="evenodd" d="M145.634 2.23535H150.959C152.48 2.23535 153.653 2.69894 154.35 3.4824C154.887 4.08972 155.151 4.96229 155.049 5.94302L155.045 5.97931C154.829 8.04715 153.287 9.25791 151.304 9.61406L154.576 14.7125H152.86L149.775 9.86347H146.237L145.731 14.7125H144.333L145.634 2.23535ZM150.171 8.59845C152.029 8.59845 153.456 7.6364 153.624 6.03109L153.627 5.99692C153.787 4.46242 152.717 3.53629 150.718 3.53629H146.896L146.368 8.59845H150.171Z" fill="white"/>
<path fill-rule="evenodd" clip-rule="evenodd" d="M166.258 2.23584L161.397 8.47389L157.872 2.23584H156.174L160.535 9.77553L160.021 14.713H161.436L161.952 9.75722L167.885 2.23584H166.258Z" fill="white"/>
<path fill-rule="evenodd" clip-rule="evenodd" d="M52.6109 20.0557H57.4412C61.3329 20.0557 63.7415 22.7467 63.3749 26.2581L63.3714 26.2941C63.0048 29.8062 60.0314 32.5321 56.1397 32.5321H51.3091L52.6109 20.0557ZM55.0771 22.5321L54.2928 30.0556H56.3984C58.6274 30.0556 60.2891 28.5405 60.5199 26.3293L60.5235 26.2941C60.7532 24.0836 59.4118 22.5321 57.1835 22.5321H55.0771Z" fill="white"/>
<path fill-rule="evenodd" clip-rule="evenodd" d="M66.0334 20.0562L64.7319 32.5322H67.4558L68.7584 20.0562H66.0334Z" fill="white"/>
<path fill-rule="evenodd" clip-rule="evenodd" d="M70.1195 26.3288L70.123 26.2932C70.4924 22.7469 73.5376 19.8413 77.2886 19.8413C79.5176 19.8413 80.7979 20.4486 81.975 21.5534L80.0408 23.6367C79.1691 22.8353 78.3689 22.3727 76.9362 22.3727C74.9543 22.3727 73.1961 24.1366 72.9748 26.2594L72.9709 26.2932C72.7327 28.5745 74.1144 30.251 76.3081 30.251C77.2989 30.251 78.2098 30.0005 78.951 29.5017L79.1373 27.7195H76.3954L76.6432 25.3498H82.0202L81.4557 30.7685C80.0684 31.8552 78.2246 32.7458 75.9599 32.7458C72.1039 32.7458 69.7342 30.0192 70.1195 26.3288Z" fill="white"/>
<path fill-rule="evenodd" clip-rule="evenodd" d="M84.7795 20.0562L83.478 32.5322H86.203L87.5045 20.0562H84.7795Z" fill="white"/>
<path fill-rule="evenodd" clip-rule="evenodd" d="M89.1838 20.0562L88.9194 22.5876H92.6875L91.6504 32.5322H94.3742L95.4117 22.5876H99.1794L99.4438 20.0562H89.1838Z" fill="white"/>
<path fill-rule="evenodd" clip-rule="evenodd" d="M103.661 19.9668L97.041 32.5324H99.82L101.243 29.735H106.481L107.32 32.5324H110.168L106.172 19.9668H103.661ZM104.536 23.2637L105.761 27.3096H102.469L104.536 23.2637Z" fill="white"/>
<path fill-rule="evenodd" clip-rule="evenodd" d="M112.844 20.0562L111.543 32.5322H120.443L120.703 30.0364H114.529L115.57 20.0562H112.844Z" fill="white"/>
</svg>
