<svg width="14" height="14" viewBox="0 0 14 14" fill="none" xmlns="http://www.w3.org/2000/svg">
<path fill-rule="evenodd" clip-rule="evenodd" d="M14 7C14 10.866 10.866 14 7 14C3.13401 14 0 10.866 0 7C0 3.13401 3.13401 0 7 0C10.866 0 14 3.13401 14 7ZM0.75 7C0.75 10.4518 3.54822 13.25 7 13.25C10.4518 13.25 13.25 10.4518 13.25 7C13.25 3.54822 10.4518 0.75 7 0.75C3.54822 0.75 0.75 3.54822 0.75 7ZM9.375 4.99946C9.37298 3.62937 8.27568 2.625 7.00001 2.625C5.75855 2.625 4.62351 3.70035 4.625 5.00043L5.375 4.99957C5.37399 4.12358 6.16413 3.375 7.00001 3.375C7.87575 3.375 8.62362 4.05952 8.625 5.00055C8.62595 5.66276 8.04282 6.36252 6.81204 7.07552L6.62501 7.18386V8.6H7.37501V7.6134C8.6912 6.8114 9.37636 5.94716 9.375 4.99946ZM7 11C7.41421 11 7.75 10.6642 7.75 10.25C7.75 9.83579 7.41421 9.5 7 9.5C6.58579 9.5 6.25 9.83579 6.25 10.25C6.25 10.6642 6.58579 11 7 11Z" fill="#007BC7"/>
</svg>
