<svg width="36" height="18" viewBox="0 0 36 18" fill="none" xmlns="http://www.w3.org/2000/svg">
<path fill-rule="evenodd" clip-rule="evenodd" d="M14.0299 4.2514V6.27539H32.0901L34.8926 8.76646L32.0901 11.5689H30.0661L27.7307 13.2815L25.3954 11.5689L23.06 13.2815L20.7246 11.5689L18.3892 13.2815L16.0538 11.5689H14.0299V13.7486C14.0299 14.9941 13.0957 16.084 11.8502 16.2397L3.90988 17.4852C2.50865 17.6409 1.10742 16.5511 1.10742 14.9941V3.00586C1.10742 1.44894 2.35296 0.3591 3.90988 0.514792L11.8502 1.76033C13.0957 1.91602 14.0299 3.00586 14.0299 4.2514ZM8.58095 11.5689C8.89234 11.5689 9.04803 11.4132 9.04803 11.1018V7.3652C9.04803 7.2095 8.89234 6.89812 8.58095 6.89812L6.40127 6.58674C6.08988 6.58674 5.7785 6.74243 5.7785 7.05381V11.4132C5.7785 11.7246 6.08988 11.8803 6.40127 11.8803L8.58095 11.5689Z" fill="white"/>
<path d="M14.0299 6.27539H13.5299V6.77539H14.0299V6.27539ZM32.0901 6.27539L32.4223 5.90169L32.2802 5.77539H32.0901V6.27539ZM34.8926 8.76646L35.2461 9.12002L35.6211 8.74505L35.2247 8.39276L34.8926 8.76646ZM32.0901 11.5689V12.0689H32.2972L32.4437 11.9225L32.0901 11.5689ZM30.0661 11.5689V11.0689H29.9024L29.7704 11.1657L30.0661 11.5689ZM27.7307 13.2815L27.4351 13.6847L27.7307 13.9016L28.0264 13.6847L27.7307 13.2815ZM25.3954 11.5689L25.691 11.1657L25.3954 10.9489L25.0997 11.1657L25.3954 11.5689ZM23.06 13.2815L22.7643 13.6847L23.06 13.9016L23.3557 13.6847L23.06 13.2815ZM20.7246 11.5689L21.0203 11.1657L20.7246 10.9489L20.4289 11.1657L20.7246 11.5689ZM18.3892 13.2815L18.0935 13.6847L18.3892 13.9016L18.6849 13.6847L18.3892 13.2815ZM16.0538 11.5689L16.3495 11.1657L16.2175 11.0689H16.0538V11.5689ZM14.0299 11.5689V11.0689H13.5299V11.5689H14.0299ZM11.8502 16.2397L11.7881 15.7435L11.7804 15.7445L11.7727 15.7457L11.8502 16.2397ZM3.90988 17.4852L3.96509 17.9822L3.97626 17.9809L3.98736 17.9792L3.90988 17.4852ZM3.90988 0.514792L3.98736 0.0208322L3.97354 0.018665L3.95963 0.0172734L3.90988 0.514792ZM11.8502 1.76033L11.7727 2.25429L11.7804 2.2555L11.7881 2.25647L11.8502 1.76033ZM8.58095 11.5689V11.0689H8.54542L8.51024 11.0739L8.58095 11.5689ZM8.58095 6.89812L8.51024 7.39309L8.54542 7.39812H8.58095V6.89812ZM6.40127 6.58674L6.47198 6.09176L6.4368 6.08674H6.40127V6.58674ZM6.40127 11.8803V12.3803H6.4368L6.47198 12.3752L6.40127 11.8803ZM14.5299 6.27539V4.2514H13.5299V6.27539H14.5299ZM32.0901 5.77539H14.0299V6.77539H32.0901V5.77539ZM35.2247 8.39276L32.4223 5.90169L31.7579 6.6491L34.5604 9.14017L35.2247 8.39276ZM32.4437 11.9225L35.2461 9.12002L34.539 8.41291L31.7366 11.2154L32.4437 11.9225ZM30.0661 12.0689H32.0901V11.0689H30.0661V12.0689ZM28.0264 13.6847L30.3618 11.9721L29.7704 11.1657L27.4351 12.8783L28.0264 13.6847ZM25.0997 11.9721L27.4351 13.6847L28.0264 12.8783L25.691 11.1657L25.0997 11.9721ZM23.3557 13.6847L25.691 11.9721L25.0997 11.1657L22.7643 12.8783L23.3557 13.6847ZM20.4289 11.9721L22.7643 13.6847L23.3557 12.8783L21.0203 11.1657L20.4289 11.9721ZM18.6849 13.6847L21.0203 11.9721L20.4289 11.1657L18.0935 12.8783L18.6849 13.6847ZM15.7582 11.9721L18.0935 13.6847L18.6849 12.8783L16.3495 11.1657L15.7582 11.9721ZM14.0299 12.0689H16.0538V11.0689H14.0299V12.0689ZM14.5299 13.7486V11.5689H13.5299V13.7486H14.5299ZM11.9122 16.7358C13.4145 16.548 14.5299 15.2396 14.5299 13.7486H13.5299C13.5299 14.7487 12.7769 15.6199 11.7881 15.7435L11.9122 16.7358ZM3.98736 17.9792L11.9276 16.7336L11.7727 15.7457L3.83239 16.9912L3.98736 17.9792ZM0.607422 14.9941C0.607422 16.8733 2.29229 18.168 3.96509 17.9822L3.85466 16.9883C2.72501 17.1138 1.60742 16.2288 1.60742 14.9941H0.607422ZM0.607422 3.00586V14.9941H1.60742V3.00586H0.607422ZM3.95963 0.0172734C2.11961 -0.166729 0.607422 1.14195 0.607422 3.00586H1.60742C1.60742 1.75594 2.58631 0.884929 3.86012 1.01231L3.95963 0.0172734ZM11.9276 1.26637L3.98736 0.0208322L3.83239 1.00875L11.7727 2.25429L11.9276 1.26637ZM14.5299 4.2514C14.5299 2.76038 13.4145 1.45198 11.9122 1.26419L11.7881 2.25647C12.7769 2.38006 13.5299 3.25135 13.5299 4.2514H14.5299ZM8.54803 11.1018C8.54803 11.1395 8.54315 11.1521 8.54449 11.148C8.54534 11.1455 8.54792 11.1386 8.5536 11.1292C8.55939 11.1195 8.56738 11.1089 8.57771 11.0986C8.58803 11.0882 8.59868 11.0802 8.60833 11.0744C8.6178 11.0688 8.62466 11.0662 8.62718 11.0653C8.63123 11.064 8.61862 11.0689 8.58095 11.0689V12.0689C8.81372 12.0689 9.08013 12.0103 9.28481 11.8057C9.4895 11.601 9.54803 11.3346 9.54803 11.1018H8.54803ZM8.54803 7.3652V11.1018H9.54803V7.3652H8.54803ZM8.58095 7.39812C8.57778 7.39812 8.57215 7.39767 8.56509 7.39584C8.55814 7.39404 8.55201 7.39148 8.54716 7.38885C8.53788 7.38383 8.53683 7.38062 8.54082 7.38562C8.54513 7.39101 8.54931 7.39855 8.55159 7.40453C8.55255 7.40705 8.55209 7.4065 8.55119 7.40215C8.55044 7.39853 8.54803 7.38591 8.54803 7.3652H9.54803C9.54803 7.15573 9.45828 6.93165 9.32169 6.76093C9.17244 6.57436 8.92252 6.39812 8.58095 6.39812V7.39812ZM6.33056 7.08171L8.51024 7.39309L8.65166 6.40314L6.47198 6.09176L6.33056 7.08171ZM6.2785 7.05381C6.2785 7.06288 6.27526 7.08194 6.26391 7.1014C6.25387 7.11861 6.24519 7.12305 6.25046 7.11953C6.2564 7.11557 6.27257 7.10674 6.30142 7.09905C6.32982 7.09147 6.36419 7.08674 6.40127 7.08674V6.08674C6.1714 6.08674 5.91295 6.14269 5.69576 6.28748C5.46376 6.44215 5.2785 6.70417 5.2785 7.05381H6.2785ZM6.2785 11.4132V7.05381H5.2785V11.4132H6.2785ZM6.40127 11.3803C6.36419 11.3803 6.32982 11.3755 6.30142 11.368C6.27257 11.3603 6.2564 11.3514 6.25046 11.3475C6.24519 11.344 6.25387 11.3484 6.26391 11.3656C6.27526 11.3851 6.2785 11.4041 6.2785 11.4132H5.2785C5.2785 11.7628 5.46376 12.0248 5.69576 12.1795C5.91295 12.3243 6.1714 12.3803 6.40127 12.3803V11.3803ZM8.51024 11.0739L6.33056 11.3853L6.47198 12.3752L8.65166 12.0639L8.51024 11.0739Z" fill="black"/>
<path d="M14.0299 6.27539H13.5299V6.77539H14.0299V6.27539ZM32.0901 6.27539L32.4223 5.90169L32.2802 5.77539H32.0901V6.27539ZM34.8926 8.76646L35.2461 9.12002L35.6211 8.74505L35.2247 8.39276L34.8926 8.76646ZM32.0901 11.5689V12.0689H32.2972L32.4437 11.9225L32.0901 11.5689ZM30.0661 11.5689V11.0689H29.9024L29.7704 11.1657L30.0661 11.5689ZM27.7307 13.2815L27.4351 13.6847L27.7307 13.9016L28.0264 13.6847L27.7307 13.2815ZM25.3954 11.5689L25.691 11.1657L25.3954 10.9489L25.0997 11.1657L25.3954 11.5689ZM23.06 13.2815L22.7643 13.6847L23.06 13.9016L23.3557 13.6847L23.06 13.2815ZM20.7246 11.5689L21.0203 11.1657L20.7246 10.9489L20.4289 11.1657L20.7246 11.5689ZM18.3892 13.2815L18.0935 13.6847L18.3892 13.9016L18.6849 13.6847L18.3892 13.2815ZM16.0538 11.5689L16.3495 11.1657L16.2175 11.0689H16.0538V11.5689ZM14.0299 11.5689V11.0689H13.5299V11.5689H14.0299ZM11.8502 16.2397L11.7881 15.7435L11.7804 15.7445L11.7727 15.7457L11.8502 16.2397ZM3.90988 17.4852L3.96509 17.9822L3.97626 17.9809L3.98736 17.9792L3.90988 17.4852ZM3.90988 0.514792L3.98736 0.0208322L3.97354 0.018665L3.95963 0.0172734L3.90988 0.514792ZM11.8502 1.76033L11.7727 2.25429L11.7804 2.2555L11.7881 2.25647L11.8502 1.76033ZM8.58095 11.5689V11.0689H8.54542L8.51024 11.0739L8.58095 11.5689ZM8.58095 6.89812L8.51024 7.39309L8.54542 7.39812H8.58095V6.89812ZM6.40127 6.58674L6.47198 6.09176L6.4368 6.08674H6.40127V6.58674ZM6.40127 11.8803V12.3803H6.4368L6.47198 12.3752L6.40127 11.8803ZM14.5299 6.27539V4.2514H13.5299V6.27539H14.5299ZM32.0901 5.77539H14.0299V6.77539H32.0901V5.77539ZM35.2247 8.39276L32.4223 5.90169L31.7579 6.6491L34.5604 9.14017L35.2247 8.39276ZM32.4437 11.9225L35.2461 9.12002L34.539 8.41291L31.7366 11.2154L32.4437 11.9225ZM30.0661 12.0689H32.0901V11.0689H30.0661V12.0689ZM28.0264 13.6847L30.3618 11.9721L29.7704 11.1657L27.4351 12.8783L28.0264 13.6847ZM25.0997 11.9721L27.4351 13.6847L28.0264 12.8783L25.691 11.1657L25.0997 11.9721ZM23.3557 13.6847L25.691 11.9721L25.0997 11.1657L22.7643 12.8783L23.3557 13.6847ZM20.4289 11.9721L22.7643 13.6847L23.3557 12.8783L21.0203 11.1657L20.4289 11.9721ZM18.6849 13.6847L21.0203 11.9721L20.4289 11.1657L18.0935 12.8783L18.6849 13.6847ZM15.7582 11.9721L18.0935 13.6847L18.6849 12.8783L16.3495 11.1657L15.7582 11.9721ZM14.0299 12.0689H16.0538V11.0689H14.0299V12.0689ZM14.5299 13.7486V11.5689H13.5299V13.7486H14.5299ZM11.9122 16.7358C13.4145 16.548 14.5299 15.2396 14.5299 13.7486H13.5299C13.5299 14.7487 12.7769 15.6199 11.7881 15.7435L11.9122 16.7358ZM3.98736 17.9792L11.9276 16.7336L11.7727 15.7457L3.83239 16.9912L3.98736 17.9792ZM0.607422 14.9941C0.607422 16.8733 2.29229 18.168 3.96509 17.9822L3.85466 16.9883C2.72501 17.1138 1.60742 16.2288 1.60742 14.9941H0.607422ZM0.607422 3.00586V14.9941H1.60742V3.00586H0.607422ZM3.95963 0.0172734C2.11961 -0.166729 0.607422 1.14195 0.607422 3.00586H1.60742C1.60742 1.75594 2.58631 0.884929 3.86012 1.01231L3.95963 0.0172734ZM11.9276 1.26637L3.98736 0.0208322L3.83239 1.00875L11.7727 2.25429L11.9276 1.26637ZM14.5299 4.2514C14.5299 2.76038 13.4145 1.45198 11.9122 1.26419L11.7881 2.25647C12.7769 2.38006 13.5299 3.25135 13.5299 4.2514H14.5299ZM8.54803 11.1018C8.54803 11.1395 8.54315 11.1521 8.54449 11.148C8.54534 11.1455 8.54792 11.1386 8.5536 11.1292C8.55939 11.1195 8.56738 11.1089 8.57771 11.0986C8.58803 11.0882 8.59868 11.0802 8.60833 11.0744C8.6178 11.0688 8.62466 11.0662 8.62718 11.0653C8.63123 11.064 8.61862 11.0689 8.58095 11.0689V12.0689C8.81372 12.0689 9.08013 12.0103 9.28481 11.8057C9.4895 11.601 9.54803 11.3346 9.54803 11.1018H8.54803ZM8.54803 7.3652V11.1018H9.54803V7.3652H8.54803ZM8.58095 7.39812C8.57778 7.39812 8.57215 7.39767 8.56509 7.39584C8.55814 7.39404 8.55201 7.39148 8.54716 7.38885C8.53788 7.38383 8.53683 7.38062 8.54082 7.38562C8.54513 7.39101 8.54931 7.39855 8.55159 7.40453C8.55255 7.40705 8.55209 7.4065 8.55119 7.40215C8.55044 7.39853 8.54803 7.38591 8.54803 7.3652H9.54803C9.54803 7.15573 9.45828 6.93165 9.32169 6.76093C9.17244 6.57436 8.92252 6.39812 8.58095 6.39812V7.39812ZM6.33056 7.08171L8.51024 7.39309L8.65166 6.40314L6.47198 6.09176L6.33056 7.08171ZM6.2785 7.05381C6.2785 7.06288 6.27526 7.08194 6.26391 7.1014C6.25387 7.11861 6.24519 7.12305 6.25046 7.11953C6.2564 7.11557 6.27257 7.10674 6.30142 7.09905C6.32982 7.09147 6.36419 7.08674 6.40127 7.08674V6.08674C6.1714 6.08674 5.91295 6.14269 5.69576 6.28748C5.46376 6.44215 5.2785 6.70417 5.2785 7.05381H6.2785ZM6.2785 11.4132V7.05381H5.2785V11.4132H6.2785ZM6.40127 11.3803C6.36419 11.3803 6.32982 11.3755 6.30142 11.368C6.27257 11.3603 6.2564 11.3514 6.25046 11.3475C6.24519 11.344 6.25387 11.3484 6.26391 11.3656C6.27526 11.3851 6.2785 11.4041 6.2785 11.4132H5.2785C5.2785 11.7628 5.46376 12.0248 5.69576 12.1795C5.91295 12.3243 6.1714 12.3803 6.40127 12.3803V11.3803ZM8.51024 11.0739L6.33056 11.3853L6.47198 12.3752L8.65166 12.0639L8.51024 11.0739Z" fill="black"/>
</svg>
