<svg width="260" height="54" viewBox="0 0 260 54" fill="none" xmlns="http://www.w3.org/2000/svg">
<g clip-path="url(#clip0_421_5408)">
<path d="M92.5694 27.1024C92.5694 22.8179 95.7257 19.1311 100.362 19.1311C104.997 19.1311 108.104 22.8179 108.104 27.0526V27.1024C108.104 31.3372 104.948 35.0737 100.312 35.0737C95.6764 35.0239 92.5694 31.3372 92.5694 27.1024ZM106.329 27.1024C106.329 23.5652 103.814 20.7254 100.312 20.7254C96.86 20.7254 94.3448 23.5154 94.3448 27.0526V27.1024C94.3448 30.5899 96.86 33.4297 100.362 33.4297C103.863 33.4297 106.329 30.5899 106.329 27.1024ZM134.539 34.725H136.216V22.1204L146.03 34.725H147.411V19.3802H145.734V31.6859L136.117 19.3802H134.489V34.725H134.539ZM164.08 34.725H165.806V28.049H174.042V26.4548H165.806V20.9745H175.029V19.3802H164.08V34.725ZM181.095 34.725H192.191V33.1307H182.771V27.7999H191.106V26.2057H182.771V20.9247H192.043V19.3304H181.045V34.725H181.095ZM241.903 34.725H243.63V28.6469L249.942 19.3802H247.92L242.742 27.0526L237.613 19.3802H235.541L241.854 28.6967V34.725H241.903ZM209.699 34.725H211.82L207.184 28.4974V28.4476C209.551 27.9992 211.277 26.5046 211.277 23.9637V23.9139C211.277 22.7182 210.833 21.6222 210.093 20.8749C209.156 19.9283 207.628 19.3304 205.754 19.3304H199.244V34.725H200.97V28.7465H205.31L209.699 34.725ZM200.92 20.9745H205.606C208.071 20.9745 209.502 22.1204 209.502 24.0136V24.0634C209.502 25.9566 208.022 27.1024 205.901 27.2021H200.92V20.9745V20.9745ZM229.179 34.725H231.3L226.664 28.4974V28.4476C229.031 27.9992 230.758 26.5046 230.758 23.9637V23.9139C230.758 22.7182 230.314 21.6222 229.574 20.8749C228.637 19.9283 227.108 19.3304 225.234 19.3304H218.675V34.725H220.401V28.7465H224.741L229.179 34.725ZM220.45 20.9745H225.135C227.601 20.9745 229.031 22.1204 229.031 24.0136V24.0634C229.031 25.9566 227.552 27.1024 225.431 27.2021H220.45V20.9745ZM125.514 34.725H127.634L122.998 28.4974V28.4476C125.366 27.9992 127.092 26.5046 127.092 23.9637V23.9139C127.092 22.7182 126.648 21.6222 125.908 20.8749C124.971 19.9283 123.442 19.3304 121.568 19.3304H115.009V34.725H116.735V28.7465H121.075L125.514 34.725ZM116.735 20.9745H121.42C123.886 20.9745 125.316 22.1204 125.316 24.0136V24.0634C125.316 25.9566 123.837 27.1024 121.716 27.2021H116.735V20.9745ZM77.5275 19.3802H75.8013V34.7748H77.5275V19.3802ZM81.966 26.106L88.476 19.3802H86.2567L79.8454 26.106L86.6019 34.725H88.7719L81.966 26.106Z" fill="black"/>
<path d="M28.7523 47.778V48.4257H16.916L1.43024 26.0064L18.7901 5.7792H23.8698V6.42687H19.086L6.80587 20.8749L25.448 47.778H28.7523ZM38.2213 5.7792V6.42687H43.301C51.7836 6.42687 55.9756 11.4588 57.7511 19.4799H58.2442V5.7792H38.2213ZM38.2213 26.4548V27.1024C47.0984 27.1024 47.9368 33.0809 48.1834 36.0203H48.6766V17.6863H48.1834C47.6409 23.5652 45.0764 26.4548 38.2213 26.4548ZM32.6483 0.846954H32.0072V53.3579H32.6483V0.846954Z" fill="black"/>
</g>
<defs>
<clipPath id="clip0_421_5408">
<rect width="259.165" height="53.9558" fill="white"/>
</clipPath>
</defs>
</svg>
