<svg width="114" height="50" viewBox="0 0 114 50" fill="none" xmlns="http://www.w3.org/2000/svg">
<path d="M65.872 32H67.864V25.64H72.304C75.472 25.64 77.32 23.432 77.32 20.816C77.32 18.2 75.52 15.992 72.304 15.992H65.872V32ZM75.256 20.816C75.256 22.616 73.96 23.864 72.064 23.864H67.864V17.768H72.064C73.96 17.768 75.256 19.016 75.256 20.816ZM93.6024 32H95.8104L89.3544 15.992H86.8824L80.4504 32H82.6584L84.0744 28.448H92.1864L93.6024 32ZM88.1304 17.768L91.5864 26.672H84.6504L88.1304 17.768ZM105.036 32H107.028V25.232L113.316 15.992H110.988L106.02 23.432L101.052 15.992H98.7238L105.036 25.232V32Z" fill="white"/>
<circle cx="25" cy="25" r="25" fill="white" fill-opacity="0.15"/>
<path fill-rule="evenodd" clip-rule="evenodd" d="M12.1553 31.6466H17.6854V22.9673H12.1553V31.6466Z" stroke="white"/>
<path d="M17.6855 24.2353C17.6855 24.2353 20.2808 22.7987 20.758 22.7758C21.8101 22.7254 31.0114 26.847 31.0114 26.847C31.0114 26.847 31.8562 27.4228 31.5489 28.1142C31.242 28.8052 30.7041 28.8052 30.7041 28.8052C30.7041 28.8052 27.0334 28.8052 26.5605 28.769C25.1597 28.6612 22.8312 27.5763 22.8312 27.5763" stroke="white"/>
<path d="M17.6855 30.1108C17.6855 30.1108 18.2407 30.097 18.8761 30.1108C19.5114 30.1246 25.1864 33.2302 27.1713 33.2216C28.9222 33.2139 37.6937 27.1156 37.6937 27.1156C37.6937 27.1156 38.2696 26.3858 37.8855 25.7328C37.5019 25.0802 36.6567 25.1953 36.6567 25.1953L31.3187 26.9617" stroke="white"/>
<path fill-rule="evenodd" clip-rule="evenodd" d="M35.0791 16.366C35.3183 17.2875 34.7649 18.228 33.8429 18.4668C32.9214 18.7056 31.9808 18.1522 31.7421 17.2306C31.5033 16.3091 32.0567 15.3685 32.9783 15.1297C33.9002 14.891 34.8403 15.4444 35.0791 16.366Z" stroke="white"/>
<path fill-rule="evenodd" clip-rule="evenodd" d="M33.3956 22.0697C33.6939 23.2218 33.0021 24.3972 31.8499 24.696C30.6982 24.9942 29.5223 24.3024 29.2236 23.1503C28.9253 21.9985 29.6172 20.8227 30.7693 20.5244C31.9215 20.2261 33.0973 20.9179 33.3956 22.0697Z" stroke="white"/>
<path fill-rule="evenodd" clip-rule="evenodd" d="M30.137 20.814C29.878 20.0859 29.1073 19.6596 28.3452 19.8575C27.5387 20.0661 27.0547 20.8894 27.2633 21.6954C27.4719 22.5019 28.2956 22.9864 29.1017 22.7773C29.1228 22.7717 29.1413 22.7614 29.1625 22.7549C29.1094 21.9726 29.4926 21.2351 30.137 20.814Z" stroke="white"/>
</svg>
