<svg width="165" height="33" viewBox="0 0 165 33" fill="none" xmlns="http://www.w3.org/2000/svg">
<path fill-rule="evenodd" clip-rule="evenodd" d="M17.6798 29.8994V29.4869H15.4861L3.44136 12.5538L11.4413 3.51312H14.5275V3.10063H11.249L0 15.8153L10.0209 29.8994H17.6798ZM23.3695 3.51312V3.10063H36.3575V11.7177H36.0487C34.8964 6.67562 32.168 3.51312 26.6734 3.51312H23.3695ZM23.3695 16.5V16.082C27.8256 16.082 29.4761 14.278 29.8228 10.5889H30.1316V22.1059H29.8228C29.6712 20.262 29.1337 16.5 23.3695 16.5ZM20.2061 33H19.785V0H20.2061V33ZM164.199 12.2163C164.199 12.3621 164.061 12.4391 163.883 12.4391H163.512V12.0005H163.9C164.085 12.0005 164.199 12.0829 164.199 12.2094V12.2163ZM163.905 11.8698H163.373V13.0345H163.512V12.5656H163.851H163.856L164.234 13.0345H164.415L164.019 12.5436C164.21 12.5092 164.343 12.3978 164.343 12.2094V12.2039C164.343 12.1146 164.305 12.0376 164.253 11.9867C164.178 11.9138 164.051 11.8698 163.905 11.8698ZM164.903 12.4776V12.4831C164.903 13.0661 164.439 13.5459 163.821 13.5459C163.208 13.5459 162.746 13.0716 162.746 12.49V12.4831C162.746 11.9015 163.211 11.4216 163.827 11.4216C164.44 11.4216 164.903 11.8946 164.903 12.4776ZM162.648 12.4831V12.49C162.648 13.117 163.161 13.6353 163.821 13.6353C164.481 13.6353 165 13.1101 165 12.4831V12.4776C165 11.8506 164.488 11.3322 163.827 11.3322C163.168 11.3322 162.648 11.8575 162.648 12.4831Z" fill="white"/>
</svg>
