<svg xmlns="http://www.w3.org/2000/svg" width="29" height="22" viewBox="0 0 29 22">
    <path fill="#000" fill-rule="nonzero" stroke="#000" stroke-width=".2" d="M19.471 21a.518.518 0 0 1-.506-.498v-2.489c0-.38-.179-.732-.477-.966-2.234-1.816-4.677-3.016-5.154-3.25a.673.673 0 0 1-.387-.586V9.726c0-.175.09-.322.238-.41.328-.205.507-.556.507-.937V4.75c0-1.524-1.252-2.753-2.8-2.753h-.805c-1.55 0-2.8 1.23-2.8 2.752V8.35c0 .38.178.732.506.937a.466.466 0 0 1 .238.41v3.485a.611.611 0 0 1-.387.585c-.477.234-2.89 1.435-5.154 3.25a1.228 1.228 0 0 0-.477.967v2.489a.518.518 0 0 1-.507.498.518.518 0 0 1-.506-.498v-2.46c0-.673.298-1.318.834-1.727 2.115-1.699 4.38-2.9 5.154-3.28V9.96a2.287 2.287 0 0 1-.685-1.61V4.748C6.303 2.67 8.031 1 10.116 1h.805c2.115 0 3.813 1.698 3.813 3.748V8.35c0 .615-.268 1.2-.745 1.61v3.046c.775.38 3.04 1.581 5.155 3.28.536.439.834 1.054.834 1.727v2.49a.518.518 0 0 1-.507.497zm8.342-2.518v2.02c0 .264.238.498.507.498a.518.518 0 0 0 .506-.498v-2.02c0-.586-.268-1.113-.715-1.494-1.668-1.347-3.486-2.313-4.17-2.664v-2.372a1.78 1.78 0 0 0 .595-1.347V7.647c0-1.728-1.43-3.162-3.218-3.162h-.655c-1.758 0-3.218 1.405-3.218 3.162v2.958c0 .527.209.995.596 1.347v1.874c0 .263.239.498.507.498a.518.518 0 0 0 .506-.498v-2.138a.466.466 0 0 0-.238-.41.82.82 0 0 1-.387-.703V7.647c0-1.2.983-2.167 2.204-2.167h.656c1.221 0 2.204.967 2.204 2.167v2.958c0 .263-.149.527-.387.702a.466.466 0 0 0-.238.41v2.84a.62.62 0 0 0 .357.557c.387.176 2.354 1.172 4.171 2.636.298.175.417.439.417.732z"/>
</svg>
