<svg width="24" height="20" viewBox="0 0 24 20" fill="none" xmlns="http://www.w3.org/2000/svg">
<g id="Saved Queries icon">
<g id="Icons / Search / Black">
<g id="Group">
<g id="Group 2">
<path id="Oval Copy 2" d="M14.8644 9.23528C15.9807 10.664 15.7274 12.7271 14.2986 13.8433C12.8699 14.9596 10.8068 14.7063 9.69057 13.2775C8.57433 11.8488 8.82765 9.78572 10.2564 8.66948C11.6851 7.55324 13.7482 7.80655 14.8644 9.23528Z" stroke="black" stroke-width="0.75" stroke-linecap="square"/>
<path id="Line 4" d="M14.4562 14.1394L16.1287 16.2801" stroke="black" stroke-width="0.75" stroke-linecap="square"/>
</g>
</g>
</g>
<g id="Combined Shape">
<mask id="path-3-inside-1_7217_28335" fill="white">
<path fill-rule="evenodd" clip-rule="evenodd" d="M1.5 1H6.6875V2.85714H1.5V1ZM0.5 2.85714V1V0H1.5H6.6875H7.6875V1V2.85714H22.5H23.5V3.85714V19V20H22.5H1.5H0.5V19V4.28571V3.85714V3.28571V2.85714ZM1.5 4.28571V19H22.5V3.85714H7.6875V4.28571H6.6875H1.5Z"/>
</mask>
<path d="M6.6875 1H7.6875V0H6.6875V1ZM1.5 1V0H0.5V1H1.5ZM6.6875 2.85714V3.85714H7.6875V2.85714H6.6875ZM1.5 2.85714H0.5V3.85714H1.5V2.85714ZM0.5 0V-1H-0.5V0H0.5ZM7.6875 0H8.6875V-1H7.6875V0ZM7.6875 2.85714H6.6875V3.85714H7.6875V2.85714ZM23.5 2.85714H24.5V1.85714H23.5V2.85714ZM23.5 20V21H24.5V20H23.5ZM0.5 20H-0.5V21H0.5V20ZM1.5 4.28571V3.28571H0.5V4.28571H1.5ZM1.5 19H0.5V20H1.5V19ZM22.5 19V20H23.5V19H22.5ZM22.5 3.85714H23.5V2.85714H22.5V3.85714ZM7.6875 3.85714V2.85714H6.6875V3.85714H7.6875ZM7.6875 4.28571V5.28571H8.6875V4.28571H7.6875ZM6.6875 0H1.5V2H6.6875V0ZM7.6875 2.85714V1H5.6875V2.85714H7.6875ZM6.6875 1.85714H1.5V3.85714H6.6875V1.85714ZM0.5 1V2.85714H2.5V1H0.5ZM-0.5 1V2.85714H1.5V1H-0.5ZM-0.5 0V1H1.5V0H-0.5ZM1.5 -1H0.5V1H1.5V-1ZM6.6875 -1H1.5V1H6.6875V-1ZM7.6875 -1H6.6875V1H7.6875V-1ZM8.6875 1V0H6.6875V1H8.6875ZM8.6875 2.85714V1H6.6875V2.85714H8.6875ZM22.5 1.85714H7.6875V3.85714H22.5V1.85714ZM23.5 1.85714H22.5V3.85714H23.5V1.85714ZM24.5 3.85714V2.85714H22.5V3.85714H24.5ZM24.5 19V3.85714H22.5V19H24.5ZM24.5 20V19H22.5V20H24.5ZM22.5 21H23.5V19H22.5V21ZM1.5 21H22.5V19H1.5V21ZM0.5 21H1.5V19H0.5V21ZM-0.5 19V20H1.5V19H-0.5ZM-0.5 4.28571V19H1.5V4.28571H-0.5ZM-0.5 3.85714V4.28571H1.5V3.85714H-0.5ZM-0.5 3.28571V3.85714H1.5V3.28571H-0.5ZM-0.5 2.85714V3.28571H1.5V2.85714H-0.5ZM0.5 4.28571V19H2.5V4.28571H0.5ZM1.5 20H22.5V18H1.5V20ZM23.5 19V3.85714H21.5V19H23.5ZM22.5 2.85714H7.6875V4.85714H22.5V2.85714ZM8.6875 4.28571V3.85714H6.6875V4.28571H8.6875ZM6.6875 5.28571H7.6875V3.28571H6.6875V5.28571ZM1.5 5.28571H6.6875V3.28571H1.5V5.28571Z" fill="black" mask="url(#path-3-inside-1_7217_28335)"/>
</g>
</g>
</svg>
