<svg width="20" height="20" viewBox="0 0 20 20" fill="none" xmlns="http://www.w3.org/2000/svg">
<path fill-rule="evenodd" clip-rule="evenodd" d="M3.27541 6.96752L2.20856 5.63397C1.93004 5.28581 1.95784 4.78391 2.27311 4.46864L4.46864 2.27311C4.78391 1.95784 5.28581 1.93004 5.63397 2.20856L6.96752 3.27541C7.1062 3.21278 7.24686 3.15445 7.3893 3.10052L7.57787 1.40337C7.62711 0.960244 8.00167 0.625 8.44752 0.625H11.5525C11.9983 0.625 12.3729 0.960244 12.4221 1.40337L12.6107 3.10052C12.7531 3.15445 12.8938 3.21278 13.0325 3.27541L14.366 2.20856C14.7142 1.93004 15.2161 1.95784 15.5314 2.27311L17.7269 4.46864C18.0422 4.78391 18.07 5.28581 17.7914 5.63397L16.7246 6.96752C16.7872 7.1062 16.8456 7.24686 16.8995 7.3893L18.5966 7.57787C19.0398 7.62711 19.375 8.00167 19.375 8.44752V11.5525C19.375 11.9983 19.0398 12.3729 18.5966 12.4221L16.8995 12.6107C16.8456 12.7531 16.7872 12.8938 16.7246 13.0325L17.7914 14.366C18.07 14.7142 18.0422 15.2161 17.7269 15.5314L15.5314 17.7269C15.2161 18.0422 14.7142 18.07 14.366 17.7914L13.0325 16.7246C12.8938 16.7872 12.7531 16.8456 12.6107 16.8995L12.4221 18.5966C12.3729 19.0398 11.9983 19.375 11.5525 19.375H8.44752C8.00167 19.375 7.62711 19.0398 7.57787 18.5966L7.3893 16.8995C7.24686 16.8456 7.1062 16.7872 6.96752 16.7246L5.63397 17.7914C5.28581 18.07 4.78391 18.0422 4.46864 17.7269L2.27311 15.5314C1.95784 15.2161 1.93004 14.7142 2.20856 14.366L3.27541 13.0325C3.21278 12.8938 3.15445 12.7531 3.10052 12.6107L1.40337 12.4221C0.960244 12.3729 0.625 11.9983 0.625 11.5525V8.44752C0.625 8.00167 0.960244 7.62711 1.40337 7.57787L3.10052 7.3893C3.15445 7.24686 3.21278 7.1062 3.27541 6.96752ZM4.05084 7.08128C3.92725 7.33269 3.81972 7.59186 3.72902 7.85742L3.65209 8.08263L1.4862 8.32329C1.42289 8.33032 1.375 8.38383 1.375 8.44752V11.5525C1.375 11.6162 1.42289 11.6697 1.4862 11.6767L3.65209 11.9174L3.72902 12.1426C3.81972 12.4081 3.92725 12.6673 4.05084 12.9187L4.1559 13.1324L2.79422 14.8346C2.75443 14.8843 2.7584 14.956 2.80344 15.001L4.99897 17.1966C5.04401 17.2416 5.11571 17.2456 5.16545 17.2058L6.86756 15.8441L7.08128 15.9492C7.33269 16.0728 7.59186 16.1803 7.85742 16.271L8.08263 16.3479L8.32329 18.5138C8.33032 18.5771 8.38383 18.625 8.44752 18.625H11.5525C11.6162 18.625 11.6697 18.5771 11.6767 18.5138L11.9174 16.3479L12.1426 16.271C12.4081 16.1803 12.6673 16.0728 12.9187 15.9492L13.1324 15.8441L14.8346 17.2058C14.8843 17.2456 14.956 17.2416 15.001 17.1966L17.1966 15.001C17.2416 14.956 17.2456 14.8843 17.2058 14.8346L15.8441 13.1324L15.9492 12.9187C16.0728 12.6673 16.1803 12.4081 16.271 12.1426L16.3479 11.9174L18.5138 11.6767C18.5771 11.6697 18.625 11.6162 18.625 11.5525V8.44752C18.625 8.38383 18.5771 8.33032 18.5138 8.32329L16.3479 8.08263L16.271 7.85742C16.1803 7.59186 16.0728 7.33269 15.9492 7.08128L15.8441 6.86756L17.2058 5.16545C17.2456 5.11571 17.2416 5.04401 17.1966 4.99897L15.001 2.80344C14.956 2.7584 14.8843 2.75443 14.8346 2.79422L13.1324 4.1559L12.9187 4.05084C12.6673 3.92725 12.4081 3.81972 12.1426 3.72902L11.9174 3.65209L11.6767 1.4862C11.6697 1.42289 11.6162 1.375 11.5525 1.375H8.44752C8.38383 1.375 8.33032 1.42289 8.32329 1.4862L8.08263 3.65209L7.85742 3.72902C7.59186 3.81972 7.33269 3.92725 7.08128 4.05084L6.86756 4.1559L5.16545 2.79422C5.11571 2.75443 5.04401 2.7584 4.99897 2.80344L2.80344 4.99897C2.7584 5.04401 2.75443 5.11571 2.79422 5.16545L4.1559 6.86756L4.05084 7.08128ZM10 14.375C7.58375 14.375 5.625 12.4162 5.625 10C5.625 7.58375 7.58375 5.625 10 5.625C12.4162 5.625 14.375 7.58375 14.375 10C14.375 12.4162 12.4162 14.375 10 14.375ZM10 13.625C12.002 13.625 13.625 12.002 13.625 10C13.625 7.99797 12.002 6.375 10 6.375C7.99797 6.375 6.375 7.99797 6.375 10C6.375 12.002 7.99797 13.625 10 13.625Z" fill="white"/>
</svg>
