<svg xmlns="http://www.w3.org/2000/svg" width="92" height="92" viewBox="0 0 92 92">
    <g fill="none" fill-rule="evenodd">
        <circle cx="46" cy="46" r="46" fill="#85C319"/>
        <g stroke="#FFF" stroke-width="1.6">
            <path d="M48.827 46.641a2.343 2.343 0 0 1-2.336 2.35 2.343 2.343 0 0 1-2.336-2.35 2.344 2.344 0 0 1 2.336-2.35 2.343 2.343 0 0 1 2.336 2.35zM66.617 66.263a28.19 28.19 0 0 0 7.906-19.622 28.196 28.196 0 0 0-8.53-20.248M26.988 26.393a28.197 28.197 0 0 0-8.53 20.249 28.195 28.195 0 0 0 7.907 19.622M60.002 59.608a18.78 18.78 0 0 0 5.177-12.967c0-5.35-2.233-10.169-5.8-13.593M33.602 33.048c-3.566 3.424-5.8 8.242-5.8 13.593 0 5.032 1.977 9.593 5.178 12.967M55.046 54.623a11.735 11.735 0 0 0 3.125-7.982c0-3.404-1.447-6.461-3.747-8.607M38.558 38.034a11.74 11.74 0 0 0-3.748 8.607c0 3.086 1.192 5.885 3.125 7.982M51.082 50.634a6.103 6.103 0 0 0 1.482-3.993c0-1.846-.817-3.499-2.105-4.62M42.523 42.022a6.107 6.107 0 0 0-2.106 4.62c0 1.528.562 2.92 1.483 3.992"/>
        </g>
    </g>
</svg>
