<svg xmlns="http://www.w3.org/2000/svg" width="15" height="15" viewBox="0 0 15 15">
  <path d="M0.00139128033,0.450499727 C0.0304914073,0.657142572 0.24402342,0.818715492 0.449926481,0.789668675 C8.05599183,0.789668675 14.2135001,6.96930007 14.2135001,14.6026931 C14.2135001,14.7938653 14.3685959,14.9734347 14.5575894,14.9973509 C14.7791829,15.0253716 15.0017203,14.8268587 14.99999,14.6026931 C14.99999,6.54271441 8.48105031,0.00035299439 0.449926481,0.00035299439 C0.126482502,-0.0103027673 -0.0158328489,0.222111235 0.00139128033,0.450499727 Z"/>
  <path d="M0.0257724678,3.97775418 C0.0418955111,4.18439702 0.243826798,4.35773074 0.449729858,4.34158924 C6.10117114,4.34158924 10.6740988,8.93094687 10.6740988,14.6026931 C10.6741381,14.8093359 10.8614407,14.9973115 11.0673438,14.9973509 C11.2732468,14.9973115 11.4605494,14.8093359 11.4605887,14.6026931 C11.4605887,8.50440067 6.52622962,3.55227356 0.449729858,3.55227356 C0.15471749,3.57200645 0.00898090804,3.77663654 0.0257724678,3.97775418 Z"/>
  <path d="M.0615577591 7.49249797C.0654902087 7.69539157.247444651 7.87839441.449611885 7.88115701 4.14638977 7.88115701 7.13477619 10.8926331 7.13477619 14.6026931 7.13481552 14.8093359 7.32211809 14.9973115 7.52802115 14.9973509 7.73392421 14.9973115 7.92122679 14.8093359 7.92126611 14.6026931 7.92126611 10.4660869 4.57144825 7.09184133.449611885 7.09184133.182834505 7.13620087.0719001015 7.27575188.0615577591 7.49249797zM1.62966136 11.8277354C.76558421 11.8277354.0566815216 12.5515379.0566815216 13.4187196.0566815216 14.2859012.76558421 14.9973509 1.62966136 14.9973509 2.49373851 14.9973509 3.2026412 14.2859012 3.2026412 13.4187196 3.2026412 12.5515379 2.49373851 11.8277354 1.62966136 11.8277354z"/>
  <path d="M1.62966136,12.6294039 C2.06868003,12.6294039 2.41615128,12.9781236 2.41615128,13.4187196 C2.41615128,13.8593156 2.06868003,14.1956825 1.62966136,14.1956825 C1.19064269,14.1956825 0.84317144,13.8593156 0.84317144,13.4187196 C0.84317144,12.9781236 1.19064269,12.6294039 1.62966136,12.6294039 Z"/>
</svg>
