<svg width="581" height="408" viewBox="0 0 581 408" fill="none" xmlns="http://www.w3.org/2000/svg">
<g clip-path="url(#clip0_159_5567)">
<path d="M474.545 255.876H100.347C97.7922 255.873 95.3433 254.855 93.537 253.046C91.7308 251.237 90.7148 248.785 90.7119 246.226V15.1427C90.714 13.2685 91.4583 11.4717 92.7816 10.1464C94.1048 8.82114 95.8989 8.07564 97.7703 8.07349H476.999C478.903 8.07565 480.728 8.83402 482.074 10.1822C483.42 11.5304 484.177 13.3583 484.179 15.2649V246.226C484.177 248.785 483.161 251.237 481.354 253.046C479.548 254.855 477.099 255.873 474.545 255.876V255.876Z" fill="#EAEAF2"/>
<path d="M460.894 242.211H112.151C107.039 242.211 102.88 238.31 102.88 233.516V32.2853C102.88 28.7297 105.962 25.8368 109.75 25.8368H463.181C467.032 25.8368 470.165 28.7774 470.165 32.3915V233.516C470.165 238.31 466.006 242.211 460.894 242.211Z" fill="white"/>
<path d="M484.046 14.5907H90.5771V9.67823C90.5809 7.11151 91.601 4.65106 93.4138 2.83667C95.2266 1.02228 97.684 0.00212055 100.247 0H474.376C476.939 0.00210819 479.396 1.02226 481.209 2.83665C483.022 4.65105 484.042 7.1115 484.046 9.67823V14.5907Z" fill="#C4C4CE"/>
<path d="M108.15 9.81486C109.531 9.81486 110.651 8.69337 110.651 7.30994C110.651 5.92651 109.531 4.80502 108.15 4.80502C106.768 4.80502 105.648 5.92651 105.648 7.30994C105.648 8.69337 106.768 9.81486 108.15 9.81486Z" fill="white"/>
<path d="M117.644 9.81486C119.025 9.81486 120.145 8.69337 120.145 7.30994C120.145 5.92651 119.025 4.80502 117.644 4.80502C116.262 4.80502 115.143 5.92651 115.143 7.30994C115.143 8.69337 116.262 9.81486 117.644 9.81486Z" fill="white"/>
<path d="M127.138 9.81486C128.519 9.81486 129.639 8.69337 129.639 7.30994C129.639 5.92651 128.519 4.80502 127.138 4.80502C125.757 4.80502 124.637 5.92651 124.637 7.30994C124.637 8.69337 125.757 9.81486 127.138 9.81486Z" fill="white"/>
<path d="M422.508 208.461H152.248C149.539 208.458 146.941 207.379 145.026 205.46C143.11 203.542 142.032 200.94 142.029 198.227V67.7281C142.032 65.6989 142.837 63.7534 144.27 62.3185C145.703 60.8836 147.645 60.0765 149.672 60.0741H424.962C427.021 60.0765 428.995 60.8965 430.45 62.3543C431.906 63.8122 432.725 65.7887 432.727 67.8504V198.227C432.724 200.94 431.646 203.542 429.731 205.46C427.815 207.379 425.218 208.458 422.508 208.461V208.461ZM149.672 61.2437C147.955 61.2457 146.309 61.9295 145.096 63.1451C143.882 64.3608 143.199 66.009 143.197 67.7281V198.227C143.2 200.63 144.154 202.934 145.851 204.634C147.548 206.333 149.848 207.289 152.248 207.292H422.508C424.908 207.289 427.208 206.333 428.905 204.634C430.602 202.934 431.556 200.63 431.559 198.227V67.8504C431.557 66.0988 430.862 64.4195 429.625 63.181C428.388 61.9424 426.711 61.2457 424.962 61.2437H149.672Z" fill="#EAEAF2"/>
<path d="M161.591 198.227H413.166C415.644 198.227 418.02 197.241 419.772 195.487C421.524 193.732 422.509 191.352 422.509 188.871V79.7784C422.509 77.2968 421.524 74.9169 419.772 73.1622C418.02 71.4075 415.644 70.4217 413.166 70.4217H161.591C159.113 70.4217 156.737 71.4075 154.984 73.1622C153.232 74.9169 152.248 77.2968 152.248 79.7784V188.871C152.248 191.352 153.232 193.732 154.984 195.487C156.737 197.241 159.113 198.227 161.591 198.227Z" fill="#F6F7FB"/>
<path d="M190.156 102.161C193.058 102.161 195.411 99.8044 195.411 96.8976C195.411 93.9909 193.058 91.6345 190.156 91.6345C187.253 91.6345 184.9 93.9909 184.9 96.8976C184.9 99.8044 187.253 102.161 190.156 102.161Z" fill="#EAEAF2"/>
<path d="M190.156 122.044C193.058 122.044 195.411 119.687 195.411 116.781C195.411 113.874 193.058 111.518 190.156 111.518C187.253 111.518 184.9 113.874 184.9 116.781C184.9 119.687 187.253 122.044 190.156 122.044Z" fill="#EAEAF2"/>
<path d="M190.156 141.927C193.058 141.927 195.411 139.57 195.411 136.664C195.411 133.757 193.058 131.401 190.156 131.401C187.253 131.401 184.9 133.757 184.9 136.664C184.9 139.57 187.253 141.927 190.156 141.927Z" fill="#EAEAF2"/>
<path d="M190.156 161.81C193.058 161.81 195.411 159.453 195.411 156.547C195.411 153.64 193.058 151.284 190.156 151.284C187.253 151.284 184.9 153.64 184.9 156.547C184.9 159.453 187.253 161.81 190.156 161.81Z" fill="#EAEAF2"/>
<path d="M389.272 97.4825H216.432C216.277 97.4825 216.128 97.4209 216.019 97.3112C215.909 97.2015 215.848 97.0528 215.848 96.8977C215.848 96.7426 215.909 96.5938 216.019 96.4842C216.128 96.3745 216.277 96.3129 216.432 96.3129H389.272C389.427 96.3129 389.575 96.3745 389.685 96.4842C389.794 96.5938 389.856 96.7426 389.856 96.8977C389.856 97.0528 389.794 97.2015 389.685 97.3112C389.575 97.4209 389.427 97.4825 389.272 97.4825Z" fill="#EAEAF2"/>
<path d="M389.272 117.365H216.432C216.277 117.365 216.128 117.304 216.019 117.194C215.909 117.085 215.848 116.936 215.848 116.781C215.848 116.626 215.909 116.477 216.019 116.367C216.128 116.257 216.277 116.196 216.432 116.196H389.272C389.427 116.196 389.575 116.257 389.685 116.367C389.794 116.477 389.856 116.626 389.856 116.781C389.856 116.936 389.794 117.085 389.685 117.194C389.575 117.304 389.427 117.365 389.272 117.365Z" fill="#EAEAF2"/>
<path d="M389.272 137.248H216.432C216.277 137.248 216.128 137.187 216.019 137.077C215.909 136.968 215.848 136.819 215.848 136.664C215.848 136.509 215.909 136.36 216.019 136.25C216.128 136.14 216.277 136.079 216.432 136.079H389.272C389.427 136.079 389.575 136.14 389.685 136.25C389.794 136.36 389.856 136.509 389.856 136.664C389.856 136.819 389.794 136.968 389.685 137.077C389.575 137.187 389.427 137.248 389.272 137.248Z" fill="#EAEAF2"/>
<path d="M389.272 157.131H216.432C216.277 157.131 216.128 157.07 216.019 156.96C215.909 156.85 215.848 156.702 215.848 156.547C215.848 156.392 215.909 156.243 216.019 156.133C216.128 156.023 216.277 155.962 216.432 155.962H389.272C389.427 155.962 389.575 156.023 389.685 156.133C389.794 156.243 389.856 156.392 389.856 156.547C389.856 156.702 389.794 156.85 389.685 156.96C389.575 157.07 389.427 157.131 389.272 157.131Z" fill="#EAEAF2"/>
<path d="M249.132 177.014H232.198C231.424 177.014 230.682 176.705 230.134 176.157C229.587 175.609 229.279 174.866 229.278 174.09V158.301C229.279 157.526 229.587 156.783 230.134 156.234C230.682 155.686 231.424 155.378 232.198 155.377H249.132C249.906 155.378 250.648 155.686 251.195 156.234C251.742 156.783 252.05 157.526 252.051 158.301V174.09C252.05 174.866 251.742 175.609 251.195 176.157C250.648 176.705 249.906 177.014 249.132 177.014V177.014Z" fill="#2B5BFC"/>
<path d="M287.086 177.014H270.152C269.378 177.014 268.636 176.705 268.089 176.157C267.541 175.609 267.233 174.866 267.232 174.091V138.418C267.233 137.643 267.541 136.9 268.089 136.351C268.636 135.803 269.378 135.495 270.152 135.494H287.086C287.86 135.495 288.602 135.803 289.149 136.351C289.696 136.9 290.004 137.643 290.005 138.418V174.091C290.004 174.866 289.696 175.609 289.149 176.157C288.602 176.705 287.86 177.014 287.086 177.014V177.014Z" fill="#2B5BFC"/>
<path d="M325.625 177.014H308.691C307.917 177.014 307.175 176.705 306.628 176.157C306.08 175.609 305.772 174.866 305.771 174.09V118.535C305.772 117.76 306.08 117.017 306.628 116.468C307.175 115.92 307.917 115.612 308.691 115.611H325.625C326.399 115.612 327.141 115.92 327.688 116.468C328.236 117.017 328.543 117.76 328.544 118.535V174.09C328.543 174.866 328.236 175.609 327.688 176.157C327.141 176.705 326.399 177.014 325.625 177.014V177.014Z" fill="#2B5BFC"/>
<path d="M365.332 177.015H348.398C347.624 177.014 346.882 176.705 346.335 176.157C345.787 175.609 345.479 174.866 345.479 174.091V99.2368C345.479 98.4616 345.787 97.7184 346.335 97.1703C346.882 96.6221 347.624 96.3138 348.398 96.3129H365.332C366.106 96.3138 366.848 96.6221 367.395 97.1703C367.943 97.7184 368.25 98.4616 368.251 99.2368V174.091C368.25 174.866 367.943 175.609 367.395 176.157C366.848 176.705 366.106 177.014 365.332 177.015V177.015Z" fill="#2B5BFC"/>
<path d="M389.272 177.014H216.432C216.277 177.014 216.128 176.953 216.019 176.843C215.909 176.733 215.848 176.585 215.848 176.43C215.848 176.275 215.909 176.126 216.019 176.016C216.128 175.906 216.277 175.845 216.432 175.845H389.272C389.427 175.845 389.575 175.906 389.685 176.016C389.794 176.126 389.856 176.275 389.856 176.43C389.856 176.585 389.794 176.733 389.685 176.843C389.575 176.953 389.427 177.014 389.272 177.014Z" fill="#050D26"/>
<path d="M465.209 286.106C465.682 285.389 466.307 284.784 467.038 284.335C467.77 283.886 468.591 283.602 469.444 283.505C470.297 283.408 471.161 283.499 471.975 283.772C472.789 284.046 473.533 284.494 474.155 285.087L492.697 275.503L491.544 286.301L474.113 293.746C473.05 294.727 471.664 295.283 470.219 295.309C468.774 295.335 467.37 294.829 466.272 293.887C465.175 292.945 464.461 291.633 464.265 290.199C464.069 288.765 464.405 287.309 465.209 286.106Z" fill="#FFB8B8"/>
<path d="M481.164 290.134C480.743 289.803 480.433 289.352 480.274 288.84L478.8 284.069C478.641 283.552 478.645 282.998 478.811 282.484C478.977 281.969 479.296 281.518 479.726 281.191L494.755 269.822L511.032 239.581C511.714 238.702 512.562 237.965 513.527 237.414C514.493 236.863 515.558 236.508 516.661 236.369C517.764 236.23 518.883 236.31 519.956 236.604C521.028 236.898 522.031 237.401 522.909 238.084C523.788 238.767 524.523 239.616 525.073 240.584C525.623 241.551 525.978 242.617 526.117 243.722C526.255 244.827 526.175 245.948 525.882 247.022C525.588 248.095 525.085 249.1 524.404 249.98L515.143 269.553C512.334 275.494 507.465 280.211 501.443 282.826L483.83 290.477C483.492 290.623 483.126 290.697 482.757 290.693C482.388 290.689 482.023 290.608 481.688 290.454C481.501 290.368 481.326 290.261 481.164 290.134V290.134Z" fill="#3F3D56"/>
<path d="M524.812 226.96C532.733 226.96 539.154 220.529 539.154 212.597C539.154 204.664 532.733 198.234 524.812 198.234C516.892 198.234 510.471 204.664 510.471 212.597C510.471 220.529 516.892 226.96 524.812 226.96Z" fill="#FFB8B8"/>
<path d="M518.995 401.015L511.836 401.015L508.432 373.361L518.998 373.361L518.995 401.015Z" fill="#FFB8B8"/>
<path d="M506.723 398.966H520.529V407.672H498.03C498.03 406.528 498.255 405.396 498.692 404.34C499.129 403.284 499.769 402.324 500.576 401.516C501.383 400.707 502.342 400.066 503.396 399.629C504.451 399.191 505.581 398.966 506.723 398.966Z" fill="#2F2E41"/>
<path d="M542.351 401.016L535.193 401.016L531.788 373.361L542.354 373.363L542.351 401.016Z" fill="#FFB8B8"/>
<path d="M530.079 398.967H543.886V407.673H521.387C521.387 406.53 521.612 405.397 522.048 404.341C522.485 403.285 523.126 402.325 523.933 401.517C524.74 400.708 525.698 400.067 526.753 399.63C527.808 399.192 528.938 398.967 530.079 398.967V398.967Z" fill="#2F2E41"/>
<path d="M542.875 393.999L534.486 393.999C533.908 393.998 533.347 393.807 532.888 393.455C532.43 393.103 532.1 392.61 531.949 392.052L519.874 347.197C519.855 347.128 519.811 347.067 519.75 347.028C519.689 346.989 519.616 346.973 519.545 346.985C519.473 346.997 519.409 347.034 519.364 347.091C519.319 347.147 519.296 347.219 519.3 347.291L521.739 389.83C521.761 390.206 521.702 390.583 521.566 390.934C521.429 391.285 521.22 391.603 520.95 391.866C520.681 392.129 520.358 392.331 520.004 392.458C519.65 392.585 519.273 392.635 518.898 392.603L509.469 391.816C508.865 391.764 508.297 391.505 507.861 391.083C507.425 390.661 507.149 390.101 507.077 389.498L498.487 300.174L501.811 302.171L532.95 296.876L545.48 391.02C545.529 391.392 545.499 391.769 545.39 392.128C545.282 392.487 545.099 392.819 544.852 393.101C544.605 393.383 544.301 393.609 543.96 393.764C543.619 393.919 543.249 393.999 542.875 393.999H542.875Z" fill="#2F2E41"/>
<path d="M508.901 309.602C505.466 309.574 502.1 308.625 499.155 306.854C498.701 306.585 498.339 306.185 498.116 305.706C497.894 305.227 497.821 304.692 497.907 304.171C499.003 297.454 504.73 262.997 509.941 244.212C512.063 236.561 516.756 232.44 523.889 231.965C534.322 231.279 543.596 239.454 544.562 250.21C546.265 269.186 539.345 296.146 536.291 306.856C536.173 307.27 535.955 307.648 535.657 307.958C535.358 308.268 534.988 308.499 534.58 308.632C534.171 308.765 533.736 308.796 533.313 308.722C532.89 308.647 532.491 308.47 532.153 308.205L525.927 303.355C525.544 303.062 525.071 302.913 524.589 302.933C524.107 302.953 523.648 303.141 523.29 303.465C518.043 308.153 513.058 309.602 508.901 309.602Z" fill="#3F3D56"/>
<path opacity="0.2" d="M529.491 259.495L534.745 281.718L527.153 300.431L532.41 282.303L529.491 259.495Z" fill="black"/>
<path d="M532.996 224.408C534.272 224.432 535.54 224.202 536.726 223.733C537.248 223.531 537.79 223.365 538.312 223.164C542.914 221.383 545.946 216.475 546.055 211.535C546.163 206.595 543.609 201.8 539.816 198.64C536.023 195.48 531.11 193.857 526.191 193.482C520.892 193.078 514.924 194.423 511.963 198.843C511.175 200.019 510.624 201.447 511.09 202.867C511.23 203.296 511.48 203.68 511.815 203.982C513.137 205.16 514.456 204.274 515.804 204.196C517.657 204.088 519.321 205.591 519.919 207.35C520.517 209.11 520.254 211.047 519.771 212.842C519.403 213.922 519.171 215.044 519.08 216.181C519.041 216.751 519.148 217.322 519.391 217.84C519.634 218.357 520.005 218.804 520.469 219.137C521.627 219.838 523.147 219.432 524.306 218.733C525.464 218.033 526.465 217.06 527.717 216.545C528.968 216.03 530.649 216.145 531.378 217.286C531.609 217.702 531.766 218.155 531.841 218.625C532.493 221.604 532.343 221.429 532.996 224.408V224.408Z" fill="#2F2E41"/>
<path d="M510.767 380.954L420.962 349.632C419.421 349.092 418.157 347.963 417.446 346.491C416.736 345.019 416.638 343.325 417.173 341.78L440.509 274.67C440.904 273.54 441.73 272.612 442.807 272.091C443.884 271.569 445.123 271.497 446.253 271.89L539.093 304.271C540.242 304.673 541.184 305.514 541.713 306.611C542.243 307.708 542.316 308.971 541.917 310.122L518.606 377.158C518.068 378.702 516.94 379.968 515.47 380.68C514 381.391 512.309 381.49 510.767 380.954V380.954Z" fill="#EAEAF2"/>
<path d="M428.626 345.775L507.154 373.164C508.649 373.685 510.29 373.591 511.716 372.9C513.141 372.21 514.235 370.981 514.756 369.484L533.6 315.293C534.121 313.795 534.026 312.151 533.337 310.724C532.648 309.296 531.421 308.201 529.925 307.679L451.397 280.29C449.902 279.769 448.261 279.863 446.835 280.554C445.41 281.244 444.316 282.473 443.796 283.971L424.951 338.162C424.693 338.903 424.584 339.688 424.629 340.472C424.674 341.256 424.873 342.023 425.214 342.73C425.555 343.437 426.032 344.07 426.618 344.592C427.203 345.115 427.886 345.517 428.626 345.775Z" fill="white"/>
<path d="M448.345 307.701L444.456 306.345C444.245 306.271 444.072 306.116 443.975 305.915C443.877 305.713 443.864 305.482 443.937 305.27L445.292 301.376C445.365 301.164 445.52 300.991 445.721 300.894C445.922 300.796 446.153 300.783 446.364 300.856L450.253 302.213C450.464 302.286 450.637 302.441 450.734 302.642C450.831 302.844 450.845 303.076 450.772 303.287L449.417 307.182C449.344 307.393 449.189 307.566 448.988 307.663C448.787 307.761 448.556 307.774 448.345 307.701V307.701Z" fill="#2B5BFC"/>
<path d="M444.836 317.792L440.947 316.436C440.736 316.362 440.563 316.207 440.466 316.006C440.369 315.805 440.355 315.573 440.428 315.362L441.783 311.467C441.857 311.256 442.011 311.082 442.212 310.985C442.413 310.888 442.644 310.874 442.855 310.948L446.744 312.304C446.955 312.378 447.128 312.532 447.225 312.734C447.323 312.935 447.336 313.167 447.263 313.378L445.908 317.273C445.835 317.484 445.68 317.657 445.479 317.755C445.278 317.852 445.047 317.866 444.836 317.792V317.792Z" fill="#3F3D56"/>
<path d="M441.327 327.884L437.438 326.527C437.227 326.453 437.054 326.299 436.957 326.097C436.86 325.896 436.846 325.664 436.92 325.453L438.274 321.558C438.348 321.347 438.502 321.174 438.703 321.076C438.904 320.979 439.136 320.966 439.347 321.039L443.236 322.395C443.446 322.469 443.619 322.624 443.717 322.825C443.814 323.026 443.827 323.258 443.754 323.469L442.4 327.364C442.326 327.575 442.172 327.749 441.971 327.846C441.77 327.943 441.538 327.957 441.327 327.884V327.884Z" fill="#EAEAF2"/>
<path d="M474.478 314.632L455.74 308.096C455.636 308.06 455.539 308.004 455.456 307.93C455.373 307.856 455.306 307.767 455.257 307.667C455.209 307.567 455.181 307.459 455.174 307.348C455.168 307.237 455.183 307.126 455.22 307.022C455.256 306.917 455.313 306.82 455.387 306.737C455.46 306.655 455.55 306.587 455.65 306.539C455.749 306.491 455.858 306.463 455.968 306.457C456.079 306.45 456.19 306.466 456.294 306.503L475.033 313.039C475.137 313.075 475.234 313.131 475.317 313.205C475.4 313.279 475.467 313.368 475.515 313.468C475.564 313.568 475.592 313.676 475.599 313.787C475.605 313.898 475.59 314.009 475.553 314.113C475.517 314.218 475.46 314.315 475.386 314.398C475.312 314.48 475.223 314.548 475.123 314.596C475.023 314.644 474.915 314.672 474.804 314.678C474.694 314.684 474.583 314.669 474.478 314.632V314.632Z" fill="#EAEAF2"/>
<path d="M470.969 324.723L452.23 318.188C452.019 318.114 451.846 317.96 451.749 317.758C451.652 317.557 451.638 317.325 451.712 317.114C451.785 316.902 451.94 316.729 452.141 316.632C452.342 316.534 452.573 316.521 452.784 316.594L471.523 323.13C471.627 323.166 471.724 323.223 471.807 323.296C471.889 323.37 471.957 323.459 472.005 323.559C472.054 323.659 472.082 323.767 472.088 323.878C472.095 323.989 472.079 324.1 472.043 324.205C472.006 324.309 471.95 324.406 471.876 324.489C471.802 324.572 471.713 324.639 471.613 324.687C471.513 324.735 471.405 324.763 471.294 324.769C471.184 324.776 471.073 324.76 470.969 324.723V324.723Z" fill="#EAEAF2"/>
<path d="M467.46 334.815L448.722 328.279C448.511 328.205 448.337 328.051 448.24 327.85C448.143 327.648 448.13 327.416 448.203 327.205C448.277 326.994 448.431 326.82 448.632 326.723C448.833 326.625 449.065 326.612 449.276 326.686L468.014 333.221C468.225 333.295 468.398 333.449 468.495 333.651C468.592 333.852 468.606 334.084 468.532 334.295C468.459 334.507 468.305 334.68 468.103 334.777C467.902 334.875 467.671 334.888 467.46 334.815V334.815Z" fill="#EAEAF2"/>
<path d="M517.326 340.282C517.462 339.954 517.591 339.621 517.709 339.281C519.249 334.852 518.97 329.991 516.932 325.769C514.893 321.547 511.264 318.308 506.842 316.765L500.683 334.477L517.326 340.282Z" fill="#2B5BFC"/>
<path d="M498.892 335.555L505.051 317.843C501.796 316.708 498.28 316.551 494.938 317.393C491.595 318.234 488.571 320.037 486.24 322.579C483.908 325.121 482.37 328.291 481.816 331.698C481.261 335.105 481.715 338.6 483.12 341.752C484.525 344.904 486.821 347.575 489.724 349.436C492.627 351.297 496.01 352.266 499.456 352.224C502.903 352.183 506.261 351.132 509.119 349.201C511.976 347.27 514.206 344.545 515.535 341.36L498.892 335.555Z" fill="#3F3D56"/>
<path d="M520.941 310.147C520.872 309.291 520.99 308.429 521.289 307.623C521.588 306.817 522.06 306.086 522.671 305.483C523.282 304.879 524.018 304.417 524.827 304.129C525.636 303.841 526.498 303.734 527.352 303.816L536.037 284.815L541.783 294.024L532.655 310.656C532.423 312.085 531.675 313.378 530.554 314.292C529.433 315.205 528.016 315.675 526.573 315.613C525.129 315.55 523.758 314.959 522.72 313.952C521.682 312.944 521.049 311.591 520.941 310.147V310.147Z" fill="#FFB8B8"/>
<path d="M535.977 303.456C535.442 303.456 534.92 303.293 534.48 302.988L530.379 300.145C529.936 299.836 529.598 299.398 529.411 298.891C529.224 298.383 529.198 297.831 529.335 297.308L534.155 279.073L528.328 245.218C528.322 244.104 528.534 242.999 528.954 241.968C529.374 240.936 529.993 239.997 530.775 239.205C531.557 238.413 532.488 237.783 533.513 237.351C534.539 236.92 535.64 236.695 536.752 236.689C537.864 236.684 538.967 236.898 539.997 237.32C541.026 237.742 541.963 238.363 542.753 239.147C543.543 239.931 544.171 240.864 544.601 241.892C545.03 242.919 545.254 244.022 545.258 245.136L550.032 266.261C551.482 272.672 550.558 279.393 547.43 285.172L538.286 302.078C538.11 302.403 537.868 302.687 537.575 302.912C537.282 303.137 536.945 303.298 536.586 303.384C536.386 303.432 536.182 303.456 535.977 303.456V303.456Z" fill="#3F3D56"/>
<path d="M580.416 408H469.472C469.317 408 469.168 407.938 469.059 407.829C468.949 407.719 468.888 407.57 468.888 407.415C468.888 407.26 468.949 407.111 469.059 407.002C469.168 406.892 469.317 406.83 469.472 406.83H580.416C580.571 406.83 580.72 406.892 580.829 407.002C580.939 407.111 581 407.26 581 407.415C581 407.57 580.939 407.719 580.829 407.829C580.72 407.938 580.571 408 580.416 408Z" fill="#C4C4CE"/>
<path d="M286.437 400.724L293.596 400.723L297.001 373.07H286.436L286.437 400.724Z" fill="#FFB8B8"/>
<path d="M284.61 398.383L298.708 398.383H298.709C299.889 398.383 301.057 398.615 302.147 399.068C303.237 399.52 304.228 400.183 305.062 401.018C305.896 401.854 306.558 402.845 307.01 403.937C307.461 405.029 307.693 406.199 307.693 407.381V407.673L284.611 407.674L284.61 398.383Z" fill="#2F2E41"/>
<path d="M257.824 400.724L264.983 400.723L268.389 373.07H257.823L257.824 400.724Z" fill="#FFB8B8"/>
<path d="M255.998 398.383L270.096 398.383H270.097C271.277 398.383 272.445 398.615 273.535 399.068C274.625 399.52 275.615 400.183 276.45 401.018C277.284 401.854 277.946 402.845 278.397 403.937C278.849 405.029 279.081 406.199 279.081 407.381V407.673L255.998 407.674L255.998 398.383Z" fill="#2F2E41"/>
<path d="M287.865 209.273C295.786 209.273 302.207 202.843 302.207 194.91C302.207 186.978 295.786 180.547 287.865 180.547C279.944 180.547 273.523 186.978 273.523 194.91C273.523 202.843 279.944 209.273 287.865 209.273Z" fill="#FFB8B8"/>
<path d="M297.509 394.755H284.225C283.877 394.755 283.533 394.686 283.212 394.552C282.891 394.418 282.6 394.221 282.355 393.973C282.111 393.726 281.918 393.432 281.788 393.109C281.658 392.786 281.593 392.44 281.597 392.092L282.369 328.916C282.372 328.691 282.289 328.475 282.137 328.31C281.985 328.145 281.775 328.045 281.552 328.03C281.328 328.015 281.108 328.086 280.935 328.229C280.762 328.372 280.651 328.576 280.624 328.799L272.892 392.442C272.814 393.08 272.506 393.667 272.026 394.093C271.545 394.519 270.926 394.755 270.284 394.755H256.872C256.509 394.756 256.151 394.681 255.819 394.535C255.487 394.39 255.189 394.177 254.943 393.911C254.697 393.644 254.508 393.33 254.389 392.987C254.271 392.644 254.224 392.281 254.252 391.919L263.109 278.425L263.35 278.399L305.759 273.812L300.134 392.249C300.103 392.925 299.812 393.562 299.323 394.029C298.835 394.496 298.185 394.756 297.509 394.755V394.755Z" fill="#2F2E41"/>
<path d="M263.626 285.392C262.945 285.391 262.29 285.124 261.802 284.648C261.313 284.173 261.029 283.525 261.008 282.843C260.776 275.667 260.379 250.836 264.991 232.606C266.25 227.626 269.075 223.184 273.049 219.937C277.023 216.689 281.935 214.808 287.059 214.572V214.572C292.102 214.296 297.104 215.618 301.355 218.349C305.606 221.081 308.891 225.084 310.742 229.79C318.494 249.5 325.818 273.794 316.687 277.604C304.719 282.598 273.171 284.824 263.787 285.387C263.733 285.39 263.679 285.392 263.626 285.392Z" fill="#3F3D56"/>
<path d="M318.438 180.393C318.664 180.625 318.907 180.839 319.166 181.033L317.661 209.995L311.398 213.206L315.002 223.304L326.639 218.699C327.579 218.327 328.373 217.659 328.903 216.797C329.432 215.934 329.667 214.923 329.574 213.915L326.525 181.062C327.523 180.316 328.27 179.284 328.668 178.103C329.065 176.922 329.095 175.647 328.751 174.449C328.408 173.251 327.709 172.185 326.746 171.395C325.784 170.604 324.604 170.126 323.364 170.024C322.123 169.921 320.881 170.199 319.802 170.821C318.723 171.443 317.859 172.379 317.324 173.505C316.79 174.63 316.61 175.892 316.809 177.123C317.008 178.353 317.576 179.494 318.438 180.393V180.393Z" fill="#FFB8B8"/>
<path d="M317.78 211.073L322.185 223.611C322.31 223.967 322.357 224.347 322.323 224.724C322.289 225.1 322.174 225.465 321.986 225.793C321.798 226.121 321.542 226.405 321.235 226.625C320.928 226.845 320.577 226.996 320.206 227.068L307.217 229.587C305.39 230.219 303.389 230.1 301.65 229.256C299.911 228.412 298.578 226.912 297.942 225.085C297.306 223.258 297.419 221.253 298.257 219.509C299.095 217.766 300.59 216.426 302.412 215.785L314.075 209.619C314.409 209.443 314.777 209.34 315.154 209.319C315.531 209.298 315.908 209.359 316.26 209.497C316.612 209.635 316.929 209.847 317.192 210.119C317.454 210.391 317.654 210.717 317.78 211.073V211.073Z" fill="#3F3D56"/>
<path d="M256.317 180.393C256.092 180.625 255.849 180.839 255.59 181.033L257.095 209.995L263.357 213.206L259.754 223.304L248.117 218.699C247.177 218.327 246.382 217.659 245.853 216.797C245.324 215.934 245.089 214.923 245.182 213.915L248.231 181.062C247.233 180.316 246.486 179.284 246.088 178.103C245.69 176.922 245.661 175.647 246.004 174.449C246.348 173.251 247.047 172.185 248.009 171.395C248.972 170.604 250.152 170.126 251.392 170.024C252.633 169.921 253.875 170.199 254.954 170.821C256.033 171.443 256.897 172.379 257.431 173.505C257.966 174.63 258.146 175.892 257.947 177.123C257.748 178.353 257.18 179.494 256.317 180.393H256.317Z" fill="#FFB8B8"/>
<path d="M258.497 209.497C258.849 209.358 259.226 209.298 259.603 209.319C259.98 209.34 260.348 209.443 260.682 209.619L272.345 215.785C274.167 216.426 275.661 217.766 276.499 219.509C277.337 221.253 277.451 223.258 276.815 225.085C276.179 226.912 274.845 228.412 273.107 229.256C271.368 230.1 269.366 230.219 267.54 229.587L254.551 227.068C254.18 226.996 253.829 226.845 253.522 226.625C253.215 226.405 252.959 226.121 252.771 225.793C252.583 225.465 252.468 225.1 252.434 224.723C252.399 224.347 252.447 223.967 252.572 223.611L256.977 211.073C257.102 210.716 257.303 210.391 257.565 210.119C257.827 209.847 258.145 209.634 258.497 209.497V209.497Z" fill="#3F3D56"/>
<path d="M293.436 197.359C293.36 195.526 293.819 193.712 294.757 192.137C295.694 190.561 297.07 189.294 298.715 188.489C303.074 186.235 305.813 181.427 304.613 177.037C303.077 171.418 295.44 167.773 289.253 169.707C287.578 170.302 285.963 171.054 284.429 171.952L280.386 174.122C278.659 174.988 276.994 175.972 275.403 177.068C273.02 178.827 271.152 181.195 269.994 183.924C268.836 186.653 268.432 189.644 268.822 192.583C269.618 198.296 273.354 203.535 278.467 207.121C280.423 208.585 282.681 209.591 285.076 210.064C287.527 210.468 290.256 210.008 292.048 208.482C294.849 206.096 294.559 202.101 293.654 198.765C293.534 198.305 293.461 197.833 293.436 197.359Z" fill="#2F2E41"/>
<path d="M342.177 408H231.232C231.077 408 230.929 407.938 230.819 407.829C230.71 407.719 230.648 407.57 230.648 407.415C230.648 407.26 230.71 407.111 230.819 407.002C230.929 406.892 231.077 406.83 231.232 406.83H342.177C342.332 406.83 342.48 406.892 342.59 407.002C342.699 407.111 342.761 407.26 342.761 407.415C342.761 407.57 342.699 407.719 342.59 407.829C342.48 407.938 342.332 408 342.177 408Z" fill="#C4C4CE"/>
<path d="M161.109 301.317L69.564 338.93C67.9918 339.574 66.2288 339.567 64.6617 338.91C63.0947 338.254 61.8515 337.002 61.2051 335.429L33.1817 267.018C32.7106 265.864 32.7157 264.571 33.1958 263.421C33.6759 262.271 34.5918 261.359 35.7425 260.885L130.382 222.001C131.554 221.521 132.868 221.526 134.036 222.015C135.204 222.505 136.13 223.438 136.612 224.61L164.605 292.946C165.248 294.521 165.241 296.286 164.585 297.856C163.93 299.425 162.68 300.67 161.109 301.317V301.317Z" fill="#EAEAF2"/>
<path d="M72.8799 330.632L152.93 297.743C154.454 297.116 155.668 295.909 156.303 294.387C156.939 292.865 156.945 291.152 156.32 289.625L133.691 234.384C133.381 233.628 132.926 232.94 132.351 232.36C131.776 231.781 131.093 231.32 130.34 231.005C129.587 230.69 128.78 230.526 127.964 230.523C127.148 230.52 126.34 230.679 125.585 230.989L45.5352 263.878C44.7804 264.188 44.094 264.644 43.5152 265.22C42.9363 265.796 42.4764 266.48 42.1617 267.234C41.8469 267.988 41.6835 268.796 41.6807 269.613C41.6779 270.43 41.8359 271.24 42.1455 271.996L64.7742 327.237C65.0839 327.993 65.5392 328.681 66.1141 329.26C66.689 329.84 67.3723 330.301 68.125 330.616C68.8777 330.931 69.685 331.095 70.5008 331.098C71.3167 331.1 72.1251 330.942 72.8799 330.632V330.632Z" fill="white"/>
<path d="M133.248 249.449L132.071 249.932L132.152 250.129L133.329 249.645L133.248 249.449Z" fill="#E6E6E6"/>
<path d="M129.775 251.106L127.397 252.082L127.317 251.886L129.694 250.909L129.775 251.106ZM125.02 253.059L122.642 254.036L122.561 253.84L124.939 252.863L125.02 253.059ZM120.264 255.013L117.887 255.99L117.806 255.793L120.184 254.817L120.264 255.013ZM115.509 256.967L113.132 257.944L113.051 257.747L115.429 256.77L115.509 256.967ZM110.754 258.92L108.376 259.897L108.296 259.701L110.674 258.724L110.754 258.92ZM105.999 260.874L103.621 261.851L103.541 261.655L105.918 260.678L105.999 260.874ZM101.244 262.828L98.8662 263.805L98.7857 263.608L101.163 262.631L101.244 262.828ZM96.4886 264.782L94.111 265.758L94.0306 265.562L96.4081 264.585L96.4886 264.782ZM91.7334 266.735L89.3559 267.712L89.2754 267.516L91.653 266.539L91.7334 266.735ZM86.9783 268.689L84.6007 269.666L84.5202 269.469L86.8978 268.493L86.9783 268.689ZM82.2231 270.643L79.8455 271.62L79.7651 271.423L82.1426 270.446L82.2231 270.643ZM77.4679 272.596L75.0904 273.573L75.0099 273.377L77.3875 272.4L77.4679 272.596ZM72.7128 274.55L70.3352 275.527L70.2548 275.331L72.6323 274.354L72.7128 274.55ZM67.9576 276.504L65.58 277.481L65.4996 277.284L67.8772 276.307L67.9576 276.504ZM63.2025 278.458L60.8249 279.434L60.7445 279.238L63.122 278.261L63.2025 278.458ZM58.4473 280.411L56.0697 281.388L55.9893 281.192L58.3669 280.215L58.4473 280.411Z" fill="#E6E6E6"/>
<path d="M53.6115 282.169L52.4346 282.652L52.515 282.849L53.6919 282.365L53.6115 282.169Z" fill="#E6E6E6"/>
<path d="M102.091 283.594L100.914 284.078L100.995 284.274L102.171 283.791L102.091 283.594Z" fill="#E6E6E6"/>
<path d="M98.6519 285.237L96.3096 286.199L96.2292 286.003L98.5714 285.04L98.6519 285.237ZM93.9674 287.161L91.6251 288.124L91.5447 287.927L93.8869 286.965L93.9674 287.161ZM89.2829 289.086L86.9406 290.048L86.8601 289.852L89.2024 288.89L89.2829 289.086ZM84.5983 291.011L82.2561 291.973L82.1756 291.777L84.5179 290.814L84.5983 291.011ZM79.9138 292.936L77.5715 293.898L77.4911 293.701L79.8334 292.739L79.9138 292.936ZM75.2293 294.86L72.887 295.823L72.8065 295.626L75.1488 294.664L75.2293 294.86ZM70.5448 296.785L68.2025 297.747L68.122 297.551L70.4643 296.589L70.5448 296.785ZM65.8602 298.71L63.518 299.672L63.4375 299.476L65.7798 298.513L65.8602 298.71Z" fill="#E6E6E6"/>
<path d="M61.0949 300.438L59.918 300.921L59.9984 301.118L61.1753 300.634L61.0949 300.438Z" fill="#E6E6E6"/>
<path d="M82.6818 301.667L81.5049 302.151L81.5854 302.347L82.7623 301.863L82.6818 301.667Z" fill="#E6E6E6"/>
<path d="M79.1756 303.337L76.7658 304.327L76.6853 304.131L79.0951 303.141L79.1756 303.337ZM74.3559 305.317L71.946 306.307L71.8656 306.111L74.2754 305.121L74.3559 305.317ZM69.5362 307.298L67.1264 308.288L67.0459 308.091L69.4557 307.101L69.5362 307.298Z" fill="#E6E6E6"/>
<path d="M64.6359 309.081L63.459 309.565L63.5395 309.761L64.7164 309.278L64.6359 309.081Z" fill="#E6E6E6"/>
<path d="M88.7238 316.417L87.5469 316.901L87.6273 317.097L88.8042 316.614L88.7238 316.417Z" fill="#E6E6E6"/>
<path d="M85.2176 318.088L82.8077 319.078L82.7273 318.881L85.1371 317.891L85.2176 318.088ZM80.3979 320.068L77.988 321.058L77.9076 320.861L80.3174 319.871L80.3979 320.068ZM75.5782 322.048L73.1684 323.038L73.0879 322.842L75.4977 321.852L75.5782 322.048Z" fill="#E6E6E6"/>
<path d="M70.6779 323.832L69.501 324.315L69.5814 324.512L70.7583 324.028L70.6779 323.832Z" fill="#E6E6E6"/>
<path d="M76.2793 321.936L144.116 294.065C145.758 293.388 147.065 292.087 147.75 290.446C148.435 288.806 148.442 286.96 147.77 285.315L134.064 251.855L133.931 251.914L117.284 291.778L104.937 286.608C104.709 286.512 104.463 286.47 104.216 286.486C103.969 286.501 103.729 286.573 103.515 286.697C103.194 286.891 102.945 287.185 102.807 287.535L94.0829 308.425L85.0556 304.646C84.8608 304.564 84.6519 304.522 84.4407 304.521C84.2296 304.52 84.0203 304.561 83.825 304.641C83.6296 304.722 83.452 304.84 83.3022 304.989C83.1524 305.138 83.0334 305.315 82.952 305.51C82.8942 305.652 77.328 319.329 76.2793 321.936Z" fill="#2B5BFC"/>
<path d="M76.0696 322.251L75.874 322.169L82.8545 305.452C83.0393 305.011 83.3914 304.661 83.8334 304.48C84.2754 304.298 84.7714 304.299 85.2124 304.484L94.0614 308.19L102.736 287.415C102.921 286.974 103.273 286.624 103.715 286.442C104.157 286.261 104.653 286.262 105.094 286.446L117.262 291.543L133.995 251.47L134.191 251.552L117.376 291.82L105.012 286.642C104.82 286.561 104.613 286.52 104.404 286.519C104.195 286.518 103.988 286.559 103.795 286.638C103.602 286.717 103.426 286.834 103.278 286.981C103.13 287.129 103.012 287.304 102.932 287.497L94.1751 308.468L85.1306 304.679C84.7415 304.517 84.3039 304.516 83.9139 304.676C83.5239 304.836 83.2132 305.145 83.0501 305.534L76.0696 322.251Z" fill="#3F3D56"/>
<path d="M82.7224 303.252C83.542 303.252 84.2065 302.586 84.2065 301.765C84.2065 300.944 83.542 300.279 82.7224 300.279C81.9027 300.279 81.2383 300.944 81.2383 301.765C81.2383 302.586 81.9027 303.252 82.7224 303.252Z" fill="#3F3D56"/>
<path d="M102.131 285.179C102.95 285.179 103.615 284.514 103.615 283.693C103.615 282.872 102.95 282.206 102.131 282.206C101.311 282.206 100.646 282.872 100.646 283.693C100.646 284.514 101.311 285.179 102.131 285.179Z" fill="#3F3D56"/>
<path d="M132.352 250.981C133.172 250.981 133.836 250.315 133.836 249.494C133.836 248.674 133.172 248.008 132.352 248.008C131.533 248.008 130.868 248.674 130.868 249.494C130.868 250.315 131.533 250.981 132.352 250.981Z" fill="#3F3D56"/>
<path d="M49.2839 300.079C50.0554 299.694 50.7333 299.145 51.27 298.47C51.8066 297.794 52.1889 297.009 52.3898 296.17C52.5908 295.331 52.6056 294.458 52.4331 293.612C52.2607 292.767 51.9052 291.969 51.3918 291.276L55.7996 248.116H46.2739L42.7709 290.26C41.6654 291.201 40.943 292.515 40.7406 293.954C40.5382 295.393 40.8698 296.856 41.6726 298.066C42.4754 299.277 43.6936 300.15 45.0964 300.521C46.4992 300.892 47.9892 300.734 49.2839 300.079Z" fill="#FFB8B8"/>
<path d="M58.0296 224.297C65.4727 224.297 71.5065 218.254 71.5065 210.799C71.5065 203.345 65.4727 197.302 58.0296 197.302C50.5865 197.302 44.5527 203.345 44.5527 210.799C44.5527 218.254 50.5865 224.297 58.0296 224.297Z" fill="#FFB8B8"/>
<path d="M60.5673 273.251C60.0278 273.251 59.5033 273.073 59.0742 272.746C58.6451 272.418 58.3352 271.959 58.1919 271.438C57.1122 267.509 54.303 260.867 49.8425 251.694C48.8361 249.62 48.2788 247.357 48.2071 245.052C48.1355 242.748 48.5512 240.454 49.4269 238.322C50.3026 236.19 51.6185 234.267 53.2884 232.68C54.9582 231.093 56.9443 229.877 59.1162 229.113C61.1745 228.385 63.3576 228.078 65.5364 228.21C67.7152 228.342 69.8455 228.91 71.8011 229.881C73.7568 230.852 75.4981 232.206 76.9222 233.863C78.3462 235.52 79.424 237.446 80.0917 239.527C83.549 250.383 83.3821 262.011 83.1498 266.506C83.121 267.047 82.9157 267.564 82.5655 267.978C82.2152 268.391 81.7393 268.678 81.2107 268.795L61.0969 273.194C60.923 273.232 60.7454 273.251 60.5673 273.251Z" fill="#FF6584"/>
<path d="M80.0451 401.418H86.7719L89.9723 375.431L80.0439 375.432L80.0451 401.418Z" fill="#FFB8B8"/>
<path d="M99.7461 407.673L78.6039 407.674L78.6035 399.493L91.5771 399.492C92.6499 399.492 93.7121 399.704 94.7031 400.115C95.6942 400.526 96.5947 401.129 97.3533 401.888C98.1119 402.648 98.7136 403.55 99.1242 404.542C99.5347 405.535 99.746 406.599 99.7461 407.673Z" fill="#2F2E41"/>
<path d="M12.7773 392.687L18.6726 395.932L33.9783 374.705L25.2785 369.915L12.7773 392.687Z" fill="#FFB8B8"/>
<path d="M27.0322 407.674L8.50532 397.473L12.4407 390.304L23.8095 396.564C25.7079 397.609 27.114 399.367 27.7184 401.45C28.3228 403.534 28.0759 405.772 27.0322 407.674V407.674V407.674Z" fill="#2F2E41"/>
<path d="M79.7304 386.994C79.1309 386.994 78.5521 386.775 78.102 386.378C77.6519 385.982 77.3612 385.435 77.2841 384.839L68.8711 319.913C68.8339 319.626 68.7071 319.358 68.5087 319.147C68.3103 318.936 68.0505 318.794 67.7664 318.74C67.4823 318.686 67.1884 318.723 66.9268 318.846C66.6651 318.97 66.4491 319.173 66.3094 319.426L31.2476 383.134C30.9583 383.654 30.4922 384.053 29.9341 384.258C29.3759 384.463 28.7628 384.461 28.2062 384.252L20.5638 381.336C20.2564 381.218 19.9755 381.041 19.7376 380.813C19.4997 380.586 19.3096 380.313 19.1784 380.011C19.0472 379.709 18.9777 379.383 18.9738 379.054C18.9699 378.725 19.0318 378.398 19.1558 378.093L43.4441 318.338C43.5056 318.186 43.5473 318.027 43.5681 317.865C46.8578 292.364 55.228 279.397 57.7148 276.03C57.8965 275.782 58.016 275.495 58.0634 275.191C58.1107 274.888 58.0845 274.577 57.9869 274.286L57.6451 273.259C57.5085 272.851 57.4805 272.415 57.5639 271.993C57.6472 271.571 57.839 271.179 58.1202 270.854C67.0814 260.632 82.7003 266.21 82.8571 266.267L82.9353 266.296L82.9844 266.363C100.498 290.417 94.0225 368.546 92.5467 383.963C92.4916 384.542 92.2336 385.084 91.8185 385.491C91.4034 385.898 90.8578 386.145 90.2783 386.189L79.9222 386.987C79.8578 386.992 79.7939 386.994 79.7304 386.994Z" fill="#2F2E41"/>
<path d="M110.422 226.478C110.355 226.774 110.311 227.076 110.291 227.379L86.7199 240.998L80.9906 237.694L74.8828 245.702L84.458 252.537C85.2315 253.089 86.1631 253.375 87.1127 253.352C88.0623 253.329 88.9789 252.998 89.7246 252.409L114.031 233.205C115.128 233.611 116.322 233.674 117.455 233.384C118.589 233.094 119.607 232.466 120.375 231.582C121.143 230.698 121.624 229.602 121.754 228.438C121.884 227.273 121.658 226.097 121.104 225.065C120.551 224.033 119.697 223.195 118.656 222.661C117.614 222.127 116.436 221.923 115.276 222.076C114.117 222.229 113.031 222.733 112.164 223.519C111.297 224.305 110.69 225.337 110.422 226.478V226.478Z" fill="#FFB8B8"/>
<path d="M85.9328 241.643L78.3146 251.531C78.0979 251.812 77.8231 252.043 77.5091 252.209C77.195 252.374 76.849 252.47 76.4948 252.489C76.1405 252.509 75.7861 252.452 75.4559 252.322C75.1257 252.191 74.8274 251.992 74.5812 251.736L65.957 242.767C64.526 241.648 63.5964 240.006 63.3719 238.202C63.1475 236.398 63.6467 234.578 64.7599 233.142C65.8731 231.706 67.5096 230.77 69.3105 230.54C71.1114 230.311 72.9297 230.806 74.3669 231.917L85.1836 237.974C85.4932 238.147 85.7619 238.386 85.9713 238.673C86.1807 238.96 86.3258 239.288 86.3969 239.636C86.468 239.985 86.4634 240.344 86.3833 240.69C86.3032 241.036 86.1495 241.361 85.9328 241.643V241.643Z" fill="#FF6584"/>
<path d="M56.4053 258.822L44.133 256.603C43.7838 256.54 43.4523 256.402 43.1611 256.199C42.8699 255.996 42.6257 255.732 42.4454 255.426C42.265 255.12 42.1526 254.779 42.1158 254.426C42.0791 254.072 42.1188 253.715 42.2323 253.378L46.2108 241.581C46.5434 239.794 47.5702 238.211 49.0661 237.181C50.562 236.15 52.4048 235.756 54.1905 236.085C55.9762 236.413 57.559 237.437 58.5918 238.932C59.6247 240.428 60.0233 242.272 59.7002 244.061L59.312 256.467C59.3008 256.822 59.2133 257.171 59.0554 257.489C58.8975 257.807 58.673 258.088 58.3972 258.311C58.1213 258.535 57.8006 258.696 57.4569 258.784C57.1132 258.872 56.7545 258.885 56.4053 258.822H56.4053Z" fill="#FF6584"/>
<path d="M60.163 207.695C63.6269 210.069 68.175 212.51 71.7128 209.981C72.8194 209.137 73.6233 207.957 74.0042 206.617C74.3851 205.278 74.3224 203.85 73.8256 202.549C72.1316 197.697 67.4774 195.562 63.0267 193.924C57.2409 191.796 50.941 190.103 44.968 191.627C38.9951 193.151 33.7164 198.943 34.7946 205.021C35.6617 209.908 40.2653 213.975 39.6117 218.896C38.954 223.849 33.3928 226.456 28.4831 227.341C23.5734 228.226 18.0793 228.51 14.5509 232.042C10.0498 236.548 11.1738 244.601 15.4091 249.358C19.6445 254.114 26.0359 256.271 32.2292 257.737C40.4349 259.679 49.31 260.699 57.1034 257.476C64.8968 254.253 70.9615 245.576 68.7039 237.44C67.7502 234.004 65.5038 231.099 63.3328 228.272C61.1617 225.444 58.9633 222.487 58.1352 219.018C57.4451 216.127 57.9559 212.771 59.8701 210.602C60.2183 210.223 60.4374 209.742 60.496 209.23C60.5546 208.718 60.4497 208.201 60.1963 207.752L60.163 207.695Z" fill="#2F2E41"/>
<path d="M111.529 408H0.58392C0.429054 408 0.280532 407.938 0.171026 407.829C0.0615195 407.719 0 407.57 0 407.415C0 407.26 0.0615195 407.111 0.171026 407.002C0.280532 406.892 0.429054 406.83 0.58392 406.83H111.529C111.684 406.83 111.832 406.892 111.942 407.002C112.051 407.111 112.113 407.26 112.113 407.415C112.113 407.57 112.051 407.719 111.942 407.829C111.832 407.938 111.684 408 111.529 408Z" fill="#C4C4CE"/>
</g>
<defs>
<clipPath id="clip0_159_5567">
<rect width="581" height="408" fill="white"/>
</clipPath>
</defs>
</svg>
